<svg width="500" height="500" viewBox="0 0 500 500" fill="none" xmlns="http://www.w3.org/2000/svg">
<g opacity="0.2">
<mask id="mask0_2_8513" style="mask-type:luminance" maskUnits="userSpaceOnUse" x="0" y="0" width="500" height="500">
<path d="M500 0H0V500H500V0Z" fill="white"/>
</mask>
<g mask="url(#mask0_2_8513)">
<path d="M56.8502 -22.25L45.7102 -11.11L56.8502 0.0400085H64.4202L53.2802 -11.11L64.4202 -22.25H56.8502Z" fill="#1C3245"/>
<path d="M77.1202 -22.25L65.9702 -11.11L77.1202 0.0400085H84.6802L73.5402 -11.11L84.6802 -22.25H77.1202Z" fill="#1C3245"/>
<path d="M97.3802 -22.25L86.2302 -11.11L97.3802 0.0400085H104.94L93.8002 -11.11L104.94 -22.25H97.3802Z" fill="#1C3245"/>
<path d="M117.64 -22.25L106.49 -11.11L117.64 0.0400085H125.2L114.06 -11.11L125.2 -22.25H117.64Z" fill="#1C3245"/>
<path d="M137.9 -22.25L126.75 -11.11L137.9 0.0400085H145.46L134.32 -11.11L145.46 -22.25H137.9Z" fill="#1C3245"/>
<path d="M158.16 -22.25L147.01 -11.11L158.16 0.0400085H165.72L154.58 -11.11L165.72 -22.25H158.16Z" fill="#1C3245"/>
<path d="M178.42 -22.25L167.27 -11.11L178.42 0.0400085H185.98L174.84 -11.11L185.98 -22.25H178.42Z" fill="#1C3245"/>
<path d="M198.68 -22.25L187.53 -11.11L198.68 0.0400085H206.24L195.1 -11.11L206.24 -22.25H198.68Z" fill="#1C3245"/>
<path d="M218.94 -22.25L207.79 -11.11L218.94 0.0400085H226.5L215.36 -11.11L226.5 -22.25H218.94Z" fill="#1C3245"/>
<path d="M239.2 -22.25L228.05 -11.11L239.2 0.0400085H246.77L235.62 -11.11L246.77 -22.25H239.2Z" fill="#1C3245"/>
<path d="M259.46 -22.25L248.31 -11.11L259.46 0.0400085H267.03L255.88 -11.11L267.03 -22.25H259.46Z" fill="#1C3245"/>
<path d="M279.72 -22.25L268.58 -11.11L279.72 0.0400085H287.29L276.14 -11.11L287.29 -22.25H279.72Z" fill="#1C3245"/>
<path d="M299.98 -22.25L288.84 -11.11L299.98 0.0400085H307.55L296.4 -11.11L307.55 -22.25H299.98Z" fill="#1C3245"/>
<path d="M320.24 -22.25L309.1 -11.11L320.24 0.0400085H327.81L316.66 -11.11L327.81 -22.25H320.24Z" fill="#1C3245"/>
<path d="M340.5 -22.25L329.36 -11.11L340.5 0.0400085H348.07L336.92 -11.11L348.07 -22.25H340.5Z" fill="#1C3245"/>
<path d="M360.76 -22.25L349.62 -11.11L360.76 0.0400085H368.33L357.18 -11.11L368.33 -22.25H360.76Z" fill="#1C3245"/>
<path d="M381.02 -22.25L369.88 -11.11L381.02 0.0400085H388.59L377.44 -11.11L388.59 -22.25H381.02Z" fill="#1C3245"/>
<path d="M401.28 -22.25L390.14 -11.11L401.28 0.0400085H408.85L397.7 -11.11L408.85 -22.25H401.28Z" fill="#1C3245"/>
<path d="M421.54 -22.25L410.4 -11.11L421.54 0.0400085H429.11L417.96 -11.11L429.11 -22.25H421.54Z" fill="#1C3245"/>
<path d="M441.8 -22.25L430.66 -11.11L441.8 0.0400085H449.37L438.23 -11.11L449.37 -22.25H441.8Z" fill="#1C3245"/>
<path d="M462.07 -22.25L450.92 -11.11L462.07 0.0400085H469.63L458.49 -11.11L469.63 -22.25H462.07Z" fill="#1C3245"/>
<path d="M482.33 -22.25L471.18 -11.11L482.33 0.0400085H489.89L478.75 -11.11L489.89 -22.25H482.33Z" fill="#1C3245"/>
<path d="M502.59 -22.25L491.44 -11.11L502.59 0.0400085H510.15L499.01 -11.11L510.15 -22.25H502.59Z" fill="#1C3245"/>
<path d="M56.8502 0.0400391L45.7102 11.19L56.8502 22.33H64.4202L53.2802 11.19L64.4202 0.0400391H56.8502Z" fill="#1C3245"/>
<path d="M77.1202 0.0400391L65.9702 11.19L77.1202 22.33H84.6802L73.5402 11.19L84.6802 0.0400391H77.1202Z" fill="#1C3245"/>
<path d="M97.3802 0.0400391L86.2302 11.19L97.3802 22.33H104.94L93.8002 11.19L104.94 0.0400391H97.3802Z" fill="#1C3245"/>
<path d="M117.64 0.0400391L106.49 11.19L117.64 22.33H125.2L114.06 11.19L125.2 0.0400391H117.64Z" fill="#1C3245"/>
<path d="M137.9 0.0400391L126.75 11.19L137.9 22.33H145.46L134.32 11.19L145.46 0.0400391H137.9Z" fill="#1C3245"/>
<path d="M158.16 0.0400391L147.01 11.19L158.16 22.33H165.72L154.58 11.19L165.72 0.0400391H158.16Z" fill="#1C3245"/>
<path d="M178.42 0.0400391L167.27 11.19L178.42 22.33H185.98L174.84 11.19L185.98 0.0400391H178.42Z" fill="#1C3245"/>
<path d="M198.68 0.0400391L187.53 11.19L198.68 22.33H206.24L195.1 11.19L206.24 0.0400391H198.68Z" fill="#1C3245"/>
<path d="M218.94 0.0400391L207.79 11.19L218.94 22.33H226.5L215.36 11.19L226.5 0.0400391H218.94Z" fill="#1C3245"/>
<path d="M239.2 0.0400391L228.05 11.19L239.2 22.33H246.77L235.62 11.19L246.77 0.0400391H239.2Z" fill="#1C3245"/>
<path d="M259.46 0.0400391L248.31 11.19L259.46 22.33H267.03L255.88 11.19L267.03 0.0400391H259.46Z" fill="#1C3245"/>
<path d="M279.72 0.0400391L268.58 11.19L279.72 22.33H287.29L276.14 11.19L287.29 0.0400391H279.72Z" fill="#1C3245"/>
<path d="M299.98 0.0400391L288.84 11.19L299.98 22.33H307.55L296.4 11.19L307.55 0.0400391H299.98Z" fill="#1C3245"/>
<path d="M320.24 0.0400391L309.1 11.19L320.24 22.33H327.81L316.66 11.19L327.81 0.0400391H320.24Z" fill="#1C3245"/>
<path d="M340.5 0.0400391L329.36 11.19L340.5 22.33H348.07L336.92 11.19L348.07 0.0400391H340.5Z" fill="#1C3245"/>
<path d="M360.76 0.0400391L349.62 11.19L360.76 22.33H368.33L357.18 11.19L368.33 0.0400391H360.76Z" fill="#1C3245"/>
<path d="M381.02 0.0400391L369.88 11.19L381.02 22.33H388.59L377.44 11.19L388.59 0.0400391H381.02Z" fill="#1C3245"/>
<path d="M401.28 0.0400391L390.14 11.19L401.28 22.33H408.85L397.7 11.19L408.85 0.0400391H401.28Z" fill="#1C3245"/>
<path d="M421.54 0.0400391L410.4 11.19L421.54 22.33H429.11L417.96 11.19L429.11 0.0400391H421.54Z" fill="#1C3245"/>
<path d="M441.8 0.0400391L430.66 11.19L441.8 22.33H449.37L438.23 11.19L449.37 0.0400391H441.8Z" fill="#1C3245"/>
<path d="M462.07 0.0400391L450.92 11.19L462.07 22.33H469.63L458.49 11.19L469.63 0.0400391H462.07Z" fill="#1C3245"/>
<path d="M482.33 0.0400391L471.18 11.19L482.33 22.33H489.89L478.75 11.19L489.89 0.0400391H482.33Z" fill="#1C3245"/>
<path d="M502.59 0.0400391L491.44 11.19L502.59 22.33H510.15L499.01 11.19L510.15 0.0400391H502.59Z" fill="#1C3245"/>
<path d="M56.8502 22.33L45.7102 33.48L56.8502 44.62H64.4202L53.2802 33.48L64.4202 22.33H56.8502Z" fill="#1C3245"/>
<path d="M77.1202 22.33L65.9702 33.48L77.1202 44.62H84.6802L73.5402 33.48L84.6802 22.33H77.1202Z" fill="#1C3245"/>
<path d="M97.3802 22.33L86.2302 33.48L97.3802 44.62H104.94L93.8002 33.48L104.94 22.33H97.3802Z" fill="#1C3245"/>
<path d="M117.64 22.33L106.49 33.48L117.64 44.62H125.2L114.06 33.48L125.2 22.33H117.64Z" fill="#1C3245"/>
<path d="M137.9 22.33L126.75 33.48L137.9 44.62H145.46L134.32 33.48L145.46 22.33H137.9Z" fill="#1C3245"/>
<path d="M158.16 22.33L147.01 33.48L158.16 44.62H165.72L154.58 33.48L165.72 22.33H158.16Z" fill="#1C3245"/>
<path d="M178.42 22.33L167.27 33.48L178.42 44.62H185.98L174.84 33.48L185.98 22.33H178.42Z" fill="#1C3245"/>
<path d="M198.68 22.33L187.53 33.48L198.68 44.62H206.24L195.1 33.48L206.24 22.33H198.68Z" fill="#1C3245"/>
<path d="M218.94 22.33L207.79 33.48L218.94 44.62H226.5L215.36 33.48L226.5 22.33H218.94Z" fill="#1C3245"/>
<path d="M239.2 22.33L228.05 33.48L239.2 44.62H246.77L235.62 33.48L246.77 22.33H239.2Z" fill="#1C3245"/>
<path d="M259.46 22.33L248.31 33.48L259.46 44.62H267.03L255.88 33.48L267.03 22.33H259.46Z" fill="#1C3245"/>
<path d="M279.72 22.33L268.58 33.48L279.72 44.62H287.29L276.14 33.48L287.29 22.33H279.72Z" fill="#1C3245"/>
<path d="M299.98 22.33L288.84 33.48L299.98 44.62H307.55L296.4 33.48L307.55 22.33H299.98Z" fill="#1C3245"/>
<path d="M320.24 22.33L309.1 33.48L320.24 44.62H327.81L316.66 33.48L327.81 22.33H320.24Z" fill="#1C3245"/>
<path d="M340.5 22.33L329.36 33.48L340.5 44.62H348.07L336.92 33.48L348.07 22.33H340.5Z" fill="#1C3245"/>
<path d="M360.76 22.33L349.62 33.48L360.76 44.62H368.33L357.18 33.48L368.33 22.33H360.76Z" fill="#1C3245"/>
<path d="M381.02 22.33L369.88 33.48L381.02 44.62H388.59L377.44 33.48L388.59 22.33H381.02Z" fill="#1C3245"/>
<path d="M401.28 22.33L390.14 33.48L401.28 44.62H408.85L397.7 33.48L408.85 22.33H401.28Z" fill="#1C3245"/>
<path d="M421.54 22.33L410.4 33.48L421.54 44.62H429.11L417.96 33.48L429.11 22.33H421.54Z" fill="#1C3245"/>
<path d="M441.8 22.33L430.66 33.48L441.8 44.62H449.37L438.23 33.48L449.37 22.33H441.8Z" fill="#1C3245"/>
<path d="M462.07 22.33L450.92 33.48L462.07 44.62H469.63L458.49 33.48L469.63 22.33H462.07Z" fill="#1C3245"/>
<path d="M482.33 22.33L471.18 33.48L482.33 44.62H489.89L478.75 33.48L489.89 22.33H482.33Z" fill="#1C3245"/>
<path d="M502.59 22.33L491.44 33.48L502.59 44.62H510.15L499.01 33.48L510.15 22.33H502.59Z" fill="#1C3245"/>
<path d="M56.8502 44.62L45.7102 55.77L56.8502 66.91H64.4202L53.2802 55.77L64.4202 44.62H56.8502Z" fill="#1C3245"/>
<path d="M77.1202 44.62L65.9702 55.77L77.1202 66.91H84.6802L73.5402 55.77L84.6802 44.62H77.1202Z" fill="#1C3245"/>
<path d="M97.3802 44.62L86.2302 55.77L97.3802 66.91H104.94L93.8002 55.77L104.94 44.62H97.3802Z" fill="#1C3245"/>
<path d="M117.64 44.62L106.49 55.77L117.64 66.91H125.2L114.06 55.77L125.2 44.62H117.64Z" fill="#1C3245"/>
<path d="M137.9 44.62L126.75 55.77L137.9 66.91H145.46L134.32 55.77L145.46 44.62H137.9Z" fill="#1C3245"/>
<path d="M158.16 44.62L147.01 55.77L158.16 66.91H165.72L154.58 55.77L165.72 44.62H158.16Z" fill="#1C3245"/>
<path d="M178.42 44.62L167.27 55.77L178.42 66.91H185.98L174.84 55.77L185.98 44.62H178.42Z" fill="#1C3245"/>
<path d="M198.68 44.62L187.53 55.77L198.68 66.91H206.24L195.1 55.77L206.24 44.62H198.68Z" fill="#1C3245"/>
<path d="M218.94 44.62L207.79 55.77L218.94 66.91H226.5L215.36 55.77L226.5 44.62H218.94Z" fill="#1C3245"/>
<path d="M239.2 44.62L228.05 55.77L239.2 66.91H246.77L235.62 55.77L246.77 44.62H239.2Z" fill="#1C3245"/>
<path d="M259.46 44.62L248.31 55.77L259.46 66.91H267.03L255.88 55.77L267.03 44.62H259.46Z" fill="#1C3245"/>
<path d="M279.72 44.62L268.58 55.77L279.72 66.91H287.29L276.14 55.77L287.29 44.62H279.72Z" fill="#1C3245"/>
<path d="M299.98 44.62L288.84 55.77L299.98 66.91H307.55L296.4 55.77L307.55 44.62H299.98Z" fill="#1C3245"/>
<path d="M320.24 44.62L309.1 55.77L320.24 66.91H327.81L316.66 55.77L327.81 44.62H320.24Z" fill="#1C3245"/>
<path d="M340.5 44.62L329.36 55.77L340.5 66.91H348.07L336.92 55.77L348.07 44.62H340.5Z" fill="#1C3245"/>
<path d="M360.76 44.62L349.62 55.77L360.76 66.91H368.33L357.18 55.77L368.33 44.62H360.76Z" fill="#1C3245"/>
<path d="M381.02 44.62L369.88 55.77L381.02 66.91H388.59L377.44 55.77L388.59 44.62H381.02Z" fill="#1C3245"/>
<path d="M401.28 44.62L390.14 55.77L401.28 66.91H408.85L397.7 55.77L408.85 44.62H401.28Z" fill="#1C3245"/>
<path d="M421.54 44.62L410.4 55.77L421.54 66.91H429.11L417.96 55.77L429.11 44.62H421.54Z" fill="#1C3245"/>
<path d="M441.8 44.62L430.66 55.77L441.8 66.91H449.37L438.23 55.77L449.37 44.62H441.8Z" fill="#1C3245"/>
<path d="M462.07 44.62L450.92 55.77L462.07 66.91H469.63L458.49 55.77L469.63 44.62H462.07Z" fill="#1C3245"/>
<path d="M482.33 44.62L471.18 55.77L482.33 66.91H489.89L478.75 55.77L489.89 44.62H482.33Z" fill="#1C3245"/>
<path d="M502.59 44.62L491.44 55.77L502.59 66.91H510.15L499.01 55.77L510.15 44.62H502.59Z" fill="#1C3245"/>
<path d="M56.8502 66.91L45.7102 78.0601L56.8502 89.2H64.4202L53.2802 78.0601L64.4202 66.91H56.8502Z" fill="#1C3245"/>
<path d="M77.1202 66.91L65.9702 78.0601L77.1202 89.2H84.6802L73.5402 78.0601L84.6802 66.91H77.1202Z" fill="#1C3245"/>
<path d="M97.3802 66.91L86.2302 78.0601L97.3802 89.2H104.94L93.8002 78.0601L104.94 66.91H97.3802Z" fill="#1C3245"/>
<path d="M117.64 66.91L106.49 78.0601L117.64 89.2H125.2L114.06 78.0601L125.2 66.91H117.64Z" fill="#1C3245"/>
<path d="M137.9 66.91L126.75 78.0601L137.9 89.2H145.46L134.32 78.0601L145.46 66.91H137.9Z" fill="#1C3245"/>
<path d="M158.16 66.91L147.01 78.0601L158.16 89.2H165.72L154.58 78.0601L165.72 66.91H158.16Z" fill="#1C3245"/>
<path d="M178.42 66.91L167.27 78.0601L178.42 89.2H185.98L174.84 78.0601L185.98 66.91H178.42Z" fill="#1C3245"/>
<path d="M198.68 66.91L187.53 78.0601L198.68 89.2H206.24L195.1 78.0601L206.24 66.91H198.68Z" fill="#1C3245"/>
<path d="M218.94 66.91L207.79 78.0601L218.94 89.2H226.5L215.36 78.0601L226.5 66.91H218.94Z" fill="#1C3245"/>
<path d="M239.2 66.91L228.05 78.0601L239.2 89.2H246.77L235.62 78.0601L246.77 66.91H239.2Z" fill="#1C3245"/>
<path d="M259.46 66.91L248.31 78.0601L259.46 89.2H267.03L255.88 78.0601L267.03 66.91H259.46Z" fill="#1C3245"/>
<path d="M279.72 66.91L268.58 78.0601L279.72 89.2H287.29L276.14 78.0601L287.29 66.91H279.72Z" fill="#1C3245"/>
<path d="M299.98 66.91L288.84 78.0601L299.98 89.2H307.55L296.4 78.0601L307.55 66.91H299.98Z" fill="#1C3245"/>
<path d="M320.24 66.91L309.1 78.0601L320.24 89.2H327.81L316.66 78.0601L327.81 66.91H320.24Z" fill="#1C3245"/>
<path d="M340.5 66.91L329.36 78.0601L340.5 89.2H348.07L336.92 78.0601L348.07 66.91H340.5Z" fill="#1C3245"/>
<path d="M360.76 66.91L349.62 78.0601L360.76 89.2H368.33L357.18 78.0601L368.33 66.91H360.76Z" fill="#1C3245"/>
<path d="M381.02 66.91L369.88 78.0601L381.02 89.2H388.59L377.44 78.0601L388.59 66.91H381.02Z" fill="#1C3245"/>
<path d="M401.28 66.91L390.14 78.0601L401.28 89.2H408.85L397.7 78.0601L408.85 66.91H401.28Z" fill="#1C3245"/>
<path d="M421.54 66.91L410.4 78.0601L421.54 89.2H429.11L417.96 78.0601L429.11 66.91H421.54Z" fill="#1C3245"/>
<path d="M441.8 66.91L430.66 78.0601L441.8 89.2H449.37L438.23 78.0601L449.37 66.91H441.8Z" fill="#1C3245"/>
<path d="M462.07 66.91L450.92 78.0601L462.07 89.2H469.63L458.49 78.0601L469.63 66.91H462.07Z" fill="#1C3245"/>
<path d="M482.33 66.91L471.18 78.0601L482.33 89.2H489.89L478.75 78.0601L489.89 66.91H482.33Z" fill="#1C3245"/>
<path d="M502.59 66.91L491.44 78.0601L502.59 89.2H510.15L499.01 78.0601L510.15 66.91H502.59Z" fill="#1C3245"/>
<path d="M56.8502 89.2L45.7102 100.35L56.8502 111.49H64.4202L53.2802 100.35L64.4202 89.2H56.8502Z" fill="#1C3245"/>
<path d="M77.1202 89.2L65.9702 100.35L77.1202 111.49H84.6802L73.5402 100.35L84.6802 89.2H77.1202Z" fill="#1C3245"/>
<path d="M97.3802 89.2L86.2302 100.35L97.3802 111.49H104.94L93.8002 100.35L104.94 89.2H97.3802Z" fill="#1C3245"/>
<path d="M117.64 89.2L106.49 100.35L117.64 111.49H125.2L114.06 100.35L125.2 89.2H117.64Z" fill="#1C3245"/>
<path d="M137.9 89.2L126.75 100.35L137.9 111.49H145.46L134.32 100.35L145.46 89.2H137.9Z" fill="#1C3245"/>
<path d="M158.16 89.2L147.01 100.35L158.16 111.49H165.72L154.58 100.35L165.72 89.2H158.16Z" fill="#1C3245"/>
<path d="M178.42 89.2L167.27 100.35L178.42 111.49H185.98L174.84 100.35L185.98 89.2H178.42Z" fill="#1C3245"/>
<path d="M198.68 89.2L187.53 100.35L198.68 111.49H206.24L195.1 100.35L206.24 89.2H198.68Z" fill="#1C3245"/>
<path d="M218.94 89.2L207.79 100.35L218.94 111.49H226.5L215.36 100.35L226.5 89.2H218.94Z" fill="#1C3245"/>
<path d="M239.2 89.2L228.05 100.35L239.2 111.49H246.77L235.62 100.35L246.77 89.2H239.2Z" fill="#1C3245"/>
<path d="M259.46 89.2L248.31 100.35L259.46 111.49H267.03L255.88 100.35L267.03 89.2H259.46Z" fill="#1C3245"/>
<path d="M279.72 89.2L268.58 100.35L279.72 111.49H287.29L276.14 100.35L287.29 89.2H279.72Z" fill="#1C3245"/>
<path d="M299.98 89.2L288.84 100.35L299.98 111.49H307.55L296.4 100.35L307.55 89.2H299.98Z" fill="#1C3245"/>
<path d="M320.24 89.2L309.1 100.35L320.24 111.49H327.81L316.66 100.35L327.81 89.2H320.24Z" fill="#1C3245"/>
<path d="M340.5 89.2L329.36 100.35L340.5 111.49H348.07L336.92 100.35L348.07 89.2H340.5Z" fill="#1C3245"/>
<path d="M360.76 89.2L349.62 100.35L360.76 111.49H368.33L357.18 100.35L368.33 89.2H360.76Z" fill="#1C3245"/>
<path d="M381.02 89.2L369.88 100.35L381.02 111.49H388.59L377.44 100.35L388.59 89.2H381.02Z" fill="#1C3245"/>
<path d="M401.28 89.2L390.14 100.35L401.28 111.49H408.85L397.7 100.35L408.85 89.2H401.28Z" fill="#1C3245"/>
<path d="M421.54 89.2L410.4 100.35L421.54 111.49H429.11L417.96 100.35L429.11 89.2H421.54Z" fill="#1C3245"/>
<path d="M441.8 89.2L430.66 100.35L441.8 111.49H449.37L438.23 100.35L449.37 89.2H441.8Z" fill="#1C3245"/>
<path d="M462.07 89.2L450.92 100.35L462.07 111.49H469.63L458.49 100.35L469.63 89.2H462.07Z" fill="#1C3245"/>
<path d="M482.33 89.2L471.18 100.35L482.33 111.49H489.89L478.75 100.35L489.89 89.2H482.33Z" fill="#1C3245"/>
<path d="M502.59 89.2L491.44 100.35L502.59 111.49H510.15L499.01 100.35L510.15 89.2H502.59Z" fill="#1C3245"/>
<path d="M56.8502 111.49L45.7102 122.64L56.8502 133.78H64.4202L53.2802 122.64L64.4202 111.49H56.8502Z" fill="#1C3245"/>
<path d="M77.1202 111.49L65.9702 122.64L77.1202 133.78H84.6802L73.5402 122.64L84.6802 111.49H77.1202Z" fill="#1C3245"/>
<path d="M97.3802 111.49L86.2302 122.64L97.3802 133.78H104.94L93.8002 122.64L104.94 111.49H97.3802Z" fill="#1C3245"/>
<path d="M117.64 111.49L106.49 122.64L117.64 133.78H125.2L114.06 122.64L125.2 111.49H117.64Z" fill="#1C3245"/>
<path d="M137.9 111.49L126.75 122.64L137.9 133.78H145.46L134.32 122.64L145.46 111.49H137.9Z" fill="#1C3245"/>
<path d="M158.16 111.49L147.01 122.64L158.16 133.78H165.72L154.58 122.64L165.72 111.49H158.16Z" fill="#1C3245"/>
<path d="M178.42 111.49L167.27 122.64L178.42 133.78H185.98L174.84 122.64L185.98 111.49H178.42Z" fill="#1C3245"/>
<path d="M198.68 111.49L187.53 122.64L198.68 133.78H206.24L195.1 122.64L206.24 111.49H198.68Z" fill="#1C3245"/>
<path d="M218.94 111.49L207.79 122.64L218.94 133.78H226.5L215.36 122.64L226.5 111.49H218.94Z" fill="#1C3245"/>
<path d="M239.2 111.49L228.05 122.64L239.2 133.78H246.77L235.62 122.64L246.77 111.49H239.2Z" fill="#1C3245"/>
<path d="M259.46 111.49L248.31 122.64L259.46 133.78H267.03L255.88 122.64L267.03 111.49H259.46Z" fill="#1C3245"/>
<path d="M279.72 111.49L268.58 122.64L279.72 133.78H287.29L276.14 122.64L287.29 111.49H279.72Z" fill="#1C3245"/>
<path d="M299.98 111.49L288.84 122.64L299.98 133.78H307.55L296.4 122.64L307.55 111.49H299.98Z" fill="#1C3245"/>
<path d="M320.24 111.49L309.1 122.64L320.24 133.78H327.81L316.66 122.64L327.81 111.49H320.24Z" fill="#1C3245"/>
<path d="M340.5 111.49L329.36 122.64L340.5 133.78H348.07L336.92 122.64L348.07 111.49H340.5Z" fill="#1C3245"/>
<path d="M360.76 111.49L349.62 122.64L360.76 133.78H368.33L357.18 122.64L368.33 111.49H360.76Z" fill="#1C3245"/>
<path d="M381.02 111.49L369.88 122.64L381.02 133.78H388.59L377.44 122.64L388.59 111.49H381.02Z" fill="#1C3245"/>
<path d="M401.28 111.49L390.14 122.64L401.28 133.78H408.85L397.7 122.64L408.85 111.49H401.28Z" fill="#1C3245"/>
<path d="M421.54 111.49L410.4 122.64L421.54 133.78H429.11L417.96 122.64L429.11 111.49H421.54Z" fill="#1C3245"/>
<path d="M441.8 111.49L430.66 122.64L441.8 133.78H449.37L438.23 122.64L449.37 111.49H441.8Z" fill="#1C3245"/>
<path d="M462.07 111.49L450.92 122.64L462.07 133.78H469.63L458.49 122.64L469.63 111.49H462.07Z" fill="#1C3245"/>
<path d="M482.33 111.49L471.18 122.64L482.33 133.78H489.89L478.75 122.64L489.89 111.49H482.33Z" fill="#1C3245"/>
<path d="M502.59 111.49L491.44 122.64L502.59 133.78H510.15L499.01 122.64L510.15 111.49H502.59Z" fill="#1C3245"/>
<path d="M56.8502 133.78L45.7102 144.93L56.8502 156.07H64.4202L53.2802 144.93L64.4202 133.78H56.8502Z" fill="#1C3245"/>
<path d="M77.1202 133.78L65.9702 144.93L77.1202 156.07H84.6802L73.5402 144.93L84.6802 133.78H77.1202Z" fill="#1C3245"/>
<path d="M97.3802 133.78L86.2302 144.93L97.3802 156.07H104.94L93.8002 144.93L104.94 133.78H97.3802Z" fill="#1C3245"/>
<path d="M117.64 133.78L106.49 144.93L117.64 156.07H125.2L114.06 144.93L125.2 133.78H117.64Z" fill="#1C3245"/>
<path d="M137.9 133.78L126.75 144.93L137.9 156.07H145.46L134.32 144.93L145.46 133.78H137.9Z" fill="#1C3245"/>
<path d="M158.16 133.78L147.01 144.93L158.16 156.07H165.72L154.58 144.93L165.72 133.78H158.16Z" fill="#1C3245"/>
<path d="M178.42 133.78L167.27 144.93L178.42 156.07H185.98L174.84 144.93L185.98 133.78H178.42Z" fill="#1C3245"/>
<path d="M198.68 133.78L187.53 144.93L198.68 156.07H206.24L195.1 144.93L206.24 133.78H198.68Z" fill="#1C3245"/>
<path d="M218.94 133.78L207.79 144.93L218.94 156.07H226.5L215.36 144.93L226.5 133.78H218.94Z" fill="#1C3245"/>
<path d="M239.2 133.78L228.05 144.93L239.2 156.07H246.77L235.62 144.93L246.77 133.78H239.2Z" fill="#1C3245"/>
<path d="M259.46 133.78L248.31 144.93L259.46 156.07H267.03L255.88 144.93L267.03 133.78H259.46Z" fill="#1C3245"/>
<path d="M279.72 133.78L268.58 144.93L279.72 156.07H287.29L276.14 144.93L287.29 133.78H279.72Z" fill="#1C3245"/>
<path d="M299.98 133.78L288.84 144.93L299.98 156.07H307.55L296.4 144.93L307.55 133.78H299.98Z" fill="#1C3245"/>
<path d="M320.24 133.78L309.1 144.93L320.24 156.07H327.81L316.66 144.93L327.81 133.78H320.24Z" fill="#1C3245"/>
<path d="M340.5 133.78L329.36 144.93L340.5 156.07H348.07L336.92 144.93L348.07 133.78H340.5Z" fill="#1C3245"/>
<path d="M360.76 133.78L349.62 144.93L360.76 156.07H368.33L357.18 144.93L368.33 133.78H360.76Z" fill="#1C3245"/>
<path d="M381.02 133.78L369.88 144.93L381.02 156.07H388.59L377.44 144.93L388.59 133.78H381.02Z" fill="#1C3245"/>
<path d="M401.28 133.78L390.14 144.93L401.28 156.07H408.85L397.7 144.93L408.85 133.78H401.28Z" fill="#1C3245"/>
<path d="M421.54 133.78L410.4 144.93L421.54 156.07H429.11L417.96 144.93L429.11 133.78H421.54Z" fill="#1C3245"/>
<path d="M441.8 133.78L430.66 144.93L441.8 156.07H449.37L438.23 144.93L449.37 133.78H441.8Z" fill="#1C3245"/>
<path d="M462.07 133.78L450.92 144.93L462.07 156.07H469.63L458.49 144.93L469.63 133.78H462.07Z" fill="#1C3245"/>
<path d="M482.33 133.78L471.18 144.93L482.33 156.07H489.89L478.75 144.93L489.89 133.78H482.33Z" fill="#1C3245"/>
<path d="M502.59 133.78L491.44 144.93L502.59 156.07H510.15L499.01 144.93L510.15 133.78H502.59Z" fill="#1C3245"/>
<path d="M56.8502 156.07L45.7102 167.22L56.8502 178.36H64.4202L53.2802 167.22L64.4202 156.07H56.8502Z" fill="#1C3245"/>
<path d="M77.1202 156.07L65.9702 167.22L77.1202 178.36H84.6802L73.5402 167.22L84.6802 156.07H77.1202Z" fill="#1C3245"/>
<path d="M97.3802 156.07L86.2302 167.22L97.3802 178.36H104.94L93.8002 167.22L104.94 156.07H97.3802Z" fill="#1C3245"/>
<path d="M117.64 156.07L106.49 167.22L117.64 178.36H125.2L114.06 167.22L125.2 156.07H117.64Z" fill="#1C3245"/>
<path d="M137.9 156.07L126.75 167.22L137.9 178.36H145.46L134.32 167.22L145.46 156.07H137.9Z" fill="#1C3245"/>
<path d="M158.16 156.07L147.01 167.22L158.16 178.36H165.72L154.58 167.22L165.72 156.07H158.16Z" fill="#1C3245"/>
<path d="M178.42 156.07L167.27 167.22L178.42 178.36H185.98L174.84 167.22L185.98 156.07H178.42Z" fill="#1C3245"/>
<path d="M198.68 156.07L187.53 167.22L198.68 178.36H206.24L195.1 167.22L206.24 156.07H198.68Z" fill="#1C3245"/>
<path d="M218.94 156.07L207.79 167.22L218.94 178.36H226.5L215.36 167.22L226.5 156.07H218.94Z" fill="#1C3245"/>
<path d="M239.2 156.07L228.05 167.22L239.2 178.36H246.77L235.62 167.22L246.77 156.07H239.2Z" fill="#1C3245"/>
<path d="M259.46 156.07L248.31 167.22L259.46 178.36H267.03L255.88 167.22L267.03 156.07H259.46Z" fill="#1C3245"/>
<path d="M279.72 156.07L268.58 167.22L279.72 178.36H287.29L276.14 167.22L287.29 156.07H279.72Z" fill="#1C3245"/>
<path d="M299.98 156.07L288.84 167.22L299.98 178.36H307.55L296.4 167.22L307.55 156.07H299.98Z" fill="#1C3245"/>
<path d="M320.24 156.07L309.1 167.22L320.24 178.36H327.81L316.66 167.22L327.81 156.07H320.24Z" fill="#1C3245"/>
<path d="M340.5 156.07L329.36 167.22L340.5 178.36H348.07L336.92 167.22L348.07 156.07H340.5Z" fill="#1C3245"/>
<path d="M360.76 156.07L349.62 167.22L360.76 178.36H368.33L357.18 167.22L368.33 156.07H360.76Z" fill="#1C3245"/>
<path d="M381.02 156.07L369.88 167.22L381.02 178.36H388.59L377.44 167.22L388.59 156.07H381.02Z" fill="#1C3245"/>
<path d="M401.28 156.07L390.14 167.22L401.28 178.36H408.85L397.7 167.22L408.85 156.07H401.28Z" fill="#1C3245"/>
<path d="M421.54 156.07L410.4 167.22L421.54 178.36H429.11L417.96 167.22L429.11 156.07H421.54Z" fill="#1C3245"/>
<path d="M441.8 156.07L430.66 167.22L441.8 178.36H449.37L438.23 167.22L449.37 156.07H441.8Z" fill="#1C3245"/>
<path d="M462.07 156.07L450.92 167.22L462.07 178.36H469.63L458.49 167.22L469.63 156.07H462.07Z" fill="#1C3245"/>
<path d="M482.33 156.07L471.18 167.22L482.33 178.36H489.89L478.75 167.22L489.89 156.07H482.33Z" fill="#1C3245"/>
<path d="M502.59 156.07L491.44 167.22L502.59 178.36H510.15L499.01 167.22L510.15 156.07H502.59Z" fill="#1C3245"/>
<path d="M56.8502 178.36L45.7102 189.51L56.8502 200.65H64.4202L53.2802 189.51L64.4202 178.36H56.8502Z" fill="#1C3245"/>
<path d="M77.1202 178.36L65.9702 189.51L77.1202 200.65H84.6802L73.5402 189.51L84.6802 178.36H77.1202Z" fill="#1C3245"/>
<path d="M97.3802 178.36L86.2302 189.51L97.3802 200.65H104.94L93.8002 189.51L104.94 178.36H97.3802Z" fill="#1C3245"/>
<path d="M117.64 178.36L106.49 189.51L117.64 200.65H125.2L114.06 189.51L125.2 178.36H117.64Z" fill="#1C3245"/>
<path d="M137.9 178.36L126.75 189.51L137.9 200.65H145.46L134.32 189.51L145.46 178.36H137.9Z" fill="#1C3245"/>
<path d="M158.16 178.36L147.01 189.51L158.16 200.65H165.72L154.58 189.51L165.72 178.36H158.16Z" fill="#1C3245"/>
<path d="M178.42 178.36L167.27 189.51L178.42 200.65H185.98L174.84 189.51L185.98 178.36H178.42Z" fill="#1C3245"/>
<path d="M198.68 178.36L187.53 189.51L198.68 200.65H206.24L195.1 189.51L206.24 178.36H198.68Z" fill="#1C3245"/>
<path d="M218.94 178.36L207.79 189.51L218.94 200.65H226.5L215.36 189.51L226.5 178.36H218.94Z" fill="#1C3245"/>
<path d="M239.2 178.36L228.05 189.51L239.2 200.65H246.77L235.62 189.51L246.77 178.36H239.2Z" fill="#1C3245"/>
<path d="M259.46 178.36L248.31 189.51L259.46 200.65H267.03L255.88 189.51L267.03 178.36H259.46Z" fill="#1C3245"/>
<path d="M279.72 178.36L268.58 189.51L279.72 200.65H287.29L276.14 189.51L287.29 178.36H279.72Z" fill="#1C3245"/>
<path d="M299.98 178.36L288.84 189.51L299.98 200.65H307.55L296.4 189.51L307.55 178.36H299.98Z" fill="#1C3245"/>
<path d="M320.24 178.36L309.1 189.51L320.24 200.65H327.81L316.66 189.51L327.81 178.36H320.24Z" fill="#1C3245"/>
<path d="M340.5 178.36L329.36 189.51L340.5 200.65H348.07L336.92 189.51L348.07 178.36H340.5Z" fill="#1C3245"/>
<path d="M360.76 178.36L349.62 189.51L360.76 200.65H368.33L357.18 189.51L368.33 178.36H360.76Z" fill="#1C3245"/>
<path d="M381.02 178.36L369.88 189.51L381.02 200.65H388.59L377.44 189.51L388.59 178.36H381.02Z" fill="#1C3245"/>
<path d="M401.28 178.36L390.14 189.51L401.28 200.65H408.85L397.7 189.51L408.85 178.36H401.28Z" fill="#1C3245"/>
<path d="M421.54 178.36L410.4 189.51L421.54 200.65H429.11L417.96 189.51L429.11 178.36H421.54Z" fill="#1C3245"/>
<path d="M441.8 178.36L430.66 189.51L441.8 200.65H449.37L438.23 189.51L449.37 178.36H441.8Z" fill="#1C3245"/>
<path d="M462.07 178.36L450.92 189.51L462.07 200.65H469.63L458.49 189.51L469.63 178.36H462.07Z" fill="#1C3245"/>
<path d="M482.33 178.36L471.18 189.51L482.33 200.65H489.89L478.75 189.51L489.89 178.36H482.33Z" fill="#1C3245"/>
<path d="M502.59 178.36L491.44 189.51L502.59 200.65H510.15L499.01 189.51L510.15 178.36H502.59Z" fill="#1C3245"/>
<path d="M56.8502 200.65L45.7102 211.8L56.8502 222.95H64.4202L53.2802 211.8L64.4202 200.65H56.8502Z" fill="#1C3245"/>
<path d="M77.1202 200.65L65.9702 211.8L77.1202 222.95H84.6802L73.5402 211.8L84.6802 200.65H77.1202Z" fill="#1C3245"/>
<path d="M97.3802 200.65L86.2302 211.8L97.3802 222.95H104.94L93.8002 211.8L104.94 200.65H97.3802Z" fill="#1C3245"/>
<path d="M117.64 200.65L106.49 211.8L117.64 222.95H125.2L114.06 211.8L125.2 200.65H117.64Z" fill="#1C3245"/>
<path d="M137.9 200.65L126.75 211.8L137.9 222.95H145.46L134.32 211.8L145.46 200.65H137.9Z" fill="#1C3245"/>
<path d="M158.16 200.65L147.01 211.8L158.16 222.95H165.72L154.58 211.8L165.72 200.65H158.16Z" fill="#1C3245"/>
<path d="M178.42 200.65L167.27 211.8L178.42 222.95H185.98L174.84 211.8L185.98 200.65H178.42Z" fill="#1C3245"/>
<path d="M198.68 200.65L187.53 211.8L198.68 222.95H206.24L195.1 211.8L206.24 200.65H198.68Z" fill="#1C3245"/>
<path d="M218.94 200.65L207.79 211.8L218.94 222.95H226.5L215.36 211.8L226.5 200.65H218.94Z" fill="#1C3245"/>
<path d="M239.2 200.65L228.05 211.8L239.2 222.95H246.77L235.62 211.8L246.77 200.65H239.2Z" fill="#1C3245"/>
<path d="M259.46 200.65L248.31 211.8L259.46 222.95H267.03L255.88 211.8L267.03 200.65H259.46Z" fill="#1C3245"/>
<path d="M279.72 200.65L268.58 211.8L279.72 222.95H287.29L276.14 211.8L287.29 200.65H279.72Z" fill="#1C3245"/>
<path d="M299.98 200.65L288.84 211.8L299.98 222.95H307.55L296.4 211.8L307.55 200.65H299.98Z" fill="#1C3245"/>
<path d="M320.24 200.65L309.1 211.8L320.24 222.95H327.81L316.66 211.8L327.81 200.65H320.24Z" fill="#1C3245"/>
<path d="M340.5 200.65L329.36 211.8L340.5 222.95H348.07L336.92 211.8L348.07 200.65H340.5Z" fill="#1C3245"/>
<path d="M360.76 200.65L349.62 211.8L360.76 222.95H368.33L357.18 211.8L368.33 200.65H360.76Z" fill="#1C3245"/>
<path d="M381.02 200.65L369.88 211.8L381.02 222.95H388.59L377.44 211.8L388.59 200.65H381.02Z" fill="#1C3245"/>
<path d="M401.28 200.65L390.14 211.8L401.28 222.95H408.85L397.7 211.8L408.85 200.65H401.28Z" fill="#1C3245"/>
<path d="M421.54 200.65L410.4 211.8L421.54 222.95H429.11L417.96 211.8L429.11 200.65H421.54Z" fill="#1C3245"/>
<path d="M441.8 200.65L430.66 211.8L441.8 222.95H449.37L438.23 211.8L449.37 200.65H441.8Z" fill="#1C3245"/>
<path d="M462.07 200.65L450.92 211.8L462.07 222.95H469.63L458.49 211.8L469.63 200.65H462.07Z" fill="#1C3245"/>
<path d="M482.33 200.65L471.18 211.8L482.33 222.95H489.89L478.75 211.8L489.89 200.65H482.33Z" fill="#1C3245"/>
<path d="M502.59 200.65L491.44 211.8L502.59 222.95H510.15L499.01 211.8L510.15 200.65H502.59Z" fill="#1C3245"/>
<path d="M56.8502 222.95L45.7102 234.09L56.8502 245.24H64.4202L53.2802 234.09L64.4202 222.95H56.8502Z" fill="#1C3245"/>
<path d="M77.1202 222.95L65.9702 234.09L77.1202 245.24H84.6802L73.5402 234.09L84.6802 222.95H77.1202Z" fill="#1C3245"/>
<path d="M97.3802 222.95L86.2302 234.09L97.3802 245.24H104.94L93.8002 234.09L104.94 222.95H97.3802Z" fill="#1C3245"/>
<path d="M117.64 222.95L106.49 234.09L117.64 245.24H125.2L114.06 234.09L125.2 222.95H117.64Z" fill="#1C3245"/>
<path d="M137.9 222.95L126.75 234.09L137.9 245.24H145.46L134.32 234.09L145.46 222.95H137.9Z" fill="#1C3245"/>
<path d="M158.16 222.95L147.01 234.09L158.16 245.24H165.72L154.58 234.09L165.72 222.95H158.16Z" fill="#1C3245"/>
<path d="M178.42 222.95L167.27 234.09L178.42 245.24H185.98L174.84 234.09L185.98 222.95H178.42Z" fill="#1C3245"/>
<path d="M198.68 222.95L187.53 234.09L198.68 245.24H206.24L195.1 234.09L206.24 222.95H198.68Z" fill="#1C3245"/>
<path d="M218.94 222.95L207.79 234.09L218.94 245.24H226.5L215.36 234.09L226.5 222.95H218.94Z" fill="#1C3245"/>
<path d="M239.2 222.95L228.05 234.09L239.2 245.24H246.77L235.62 234.09L246.77 222.95H239.2Z" fill="#1C3245"/>
<path d="M259.46 222.95L248.31 234.09L259.46 245.24H267.03L255.88 234.09L267.03 222.95H259.46Z" fill="#1C3245"/>
<path d="M279.72 222.95L268.58 234.09L279.72 245.24H287.29L276.14 234.09L287.29 222.95H279.72Z" fill="#1C3245"/>
<path d="M299.98 222.95L288.84 234.09L299.98 245.24H307.55L296.4 234.09L307.55 222.95H299.98Z" fill="#1C3245"/>
<path d="M320.24 222.95L309.1 234.09L320.24 245.24H327.81L316.66 234.09L327.81 222.95H320.24Z" fill="#1C3245"/>
<path d="M340.5 222.95L329.36 234.09L340.5 245.24H348.07L336.92 234.09L348.07 222.95H340.5Z" fill="#1C3245"/>
<path d="M360.76 222.95L349.62 234.09L360.76 245.24H368.33L357.18 234.09L368.33 222.95H360.76Z" fill="#1C3245"/>
<path d="M381.02 222.95L369.88 234.09L381.02 245.24H388.59L377.44 234.09L388.59 222.95H381.02Z" fill="#1C3245"/>
<path d="M401.28 222.95L390.14 234.09L401.28 245.24H408.85L397.7 234.09L408.85 222.95H401.28Z" fill="#1C3245"/>
<path d="M421.54 222.95L410.4 234.09L421.54 245.24H429.11L417.96 234.09L429.11 222.95H421.54Z" fill="#1C3245"/>
<path d="M441.8 222.95L430.66 234.09L441.8 245.24H449.37L438.23 234.09L449.37 222.95H441.8Z" fill="#1C3245"/>
<path d="M462.07 222.95L450.92 234.09L462.07 245.24H469.63L458.49 234.09L469.63 222.95H462.07Z" fill="#1C3245"/>
<path d="M482.33 222.95L471.18 234.09L482.33 245.24H489.89L478.75 234.09L489.89 222.95H482.33Z" fill="#1C3245"/>
<path d="M502.59 222.95L491.44 234.09L502.59 245.24H510.15L499.01 234.09L510.15 222.95H502.59Z" fill="#1C3245"/>
<path d="M56.8502 245.24L45.7102 256.38L56.8502 267.53H64.4202L53.2802 256.38L64.4202 245.24H56.8502Z" fill="#1C3245"/>
<path d="M77.1202 245.24L65.9702 256.38L77.1202 267.53H84.6802L73.5402 256.38L84.6802 245.24H77.1202Z" fill="#1C3245"/>
<path d="M97.3802 245.24L86.2302 256.38L97.3802 267.53H104.94L93.8002 256.38L104.94 245.24H97.3802Z" fill="#1C3245"/>
<path d="M117.64 245.24L106.49 256.38L117.64 267.53H125.2L114.06 256.38L125.2 245.24H117.64Z" fill="#1C3245"/>
<path d="M137.9 245.24L126.75 256.38L137.9 267.53H145.46L134.32 256.38L145.46 245.24H137.9Z" fill="#1C3245"/>
<path d="M158.16 245.24L147.01 256.38L158.16 267.53H165.72L154.58 256.38L165.72 245.24H158.16Z" fill="#1C3245"/>
<path d="M178.42 245.24L167.27 256.38L178.42 267.53H185.98L174.84 256.38L185.98 245.24H178.42Z" fill="#1C3245"/>
<path d="M198.68 245.24L187.53 256.38L198.68 267.53H206.24L195.1 256.38L206.24 245.24H198.68Z" fill="#1C3245"/>
<path d="M218.94 245.24L207.79 256.38L218.94 267.53H226.5L215.36 256.38L226.5 245.24H218.94Z" fill="#1C3245"/>
<path d="M239.2 245.24L228.05 256.38L239.2 267.53H246.77L235.62 256.38L246.77 245.24H239.2Z" fill="#1C3245"/>
<path d="M259.46 245.24L248.31 256.38L259.46 267.53H267.03L255.88 256.38L267.03 245.24H259.46Z" fill="#1C3245"/>
<path d="M279.72 245.24L268.58 256.38L279.72 267.53H287.29L276.14 256.38L287.29 245.24H279.72Z" fill="#1C3245"/>
<path d="M299.98 245.24L288.84 256.38L299.98 267.53H307.55L296.4 256.38L307.55 245.24H299.98Z" fill="#1C3245"/>
<path d="M320.24 245.24L309.1 256.38L320.24 267.53H327.81L316.66 256.38L327.81 245.24H320.24Z" fill="#1C3245"/>
<path d="M340.5 245.24L329.36 256.38L340.5 267.53H348.07L336.92 256.38L348.07 245.24H340.5Z" fill="#1C3245"/>
<path d="M360.76 245.24L349.62 256.38L360.76 267.53H368.33L357.18 256.38L368.33 245.24H360.76Z" fill="#1C3245"/>
<path d="M381.02 245.24L369.88 256.38L381.02 267.53H388.59L377.44 256.38L388.59 245.24H381.02Z" fill="#1C3245"/>
<path d="M401.28 245.24L390.14 256.38L401.28 267.53H408.85L397.7 256.38L408.85 245.24H401.28Z" fill="#1C3245"/>
<path d="M421.54 245.24L410.4 256.38L421.54 267.53H429.11L417.96 256.38L429.11 245.24H421.54Z" fill="#1C3245"/>
<path d="M441.8 245.24L430.66 256.38L441.8 267.53H449.37L438.23 256.38L449.37 245.24H441.8Z" fill="#1C3245"/>
<path d="M462.07 245.24L450.92 256.38L462.07 267.53H469.63L458.49 256.38L469.63 245.24H462.07Z" fill="#1C3245"/>
<path d="M482.33 245.24L471.18 256.38L482.33 267.53H489.89L478.75 256.38L489.89 245.24H482.33Z" fill="#1C3245"/>
<path d="M502.59 245.24L491.44 256.38L502.59 267.53H510.15L499.01 256.38L510.15 245.24H502.59Z" fill="#1C3245"/>
<path d="M56.8502 267.53L45.7102 278.67L56.8502 289.82H64.4202L53.2802 278.67L64.4202 267.53H56.8502Z" fill="#1C3245"/>
<path d="M77.1202 267.53L65.9702 278.67L77.1202 289.82H84.6802L73.5402 278.67L84.6802 267.53H77.1202Z" fill="#1C3245"/>
<path d="M97.3802 267.53L86.2302 278.67L97.3802 289.82H104.94L93.8002 278.67L104.94 267.53H97.3802Z" fill="#1C3245"/>
<path d="M117.64 267.53L106.49 278.67L117.64 289.82H125.2L114.06 278.67L125.2 267.53H117.64Z" fill="#1C3245"/>
<path d="M137.9 267.53L126.75 278.67L137.9 289.82H145.46L134.32 278.67L145.46 267.53H137.9Z" fill="#1C3245"/>
<path d="M158.16 267.53L147.01 278.67L158.16 289.82H165.72L154.58 278.67L165.72 267.53H158.16Z" fill="#1C3245"/>
<path d="M178.42 267.53L167.27 278.67L178.42 289.82H185.98L174.84 278.67L185.98 267.53H178.42Z" fill="#1C3245"/>
<path d="M198.68 267.53L187.53 278.67L198.68 289.82H206.24L195.1 278.67L206.24 267.53H198.68Z" fill="#1C3245"/>
<path d="M218.94 267.53L207.79 278.67L218.94 289.82H226.5L215.36 278.67L226.5 267.53H218.94Z" fill="#1C3245"/>
<path d="M239.2 267.53L228.05 278.67L239.2 289.82H246.77L235.62 278.67L246.77 267.53H239.2Z" fill="#1C3245"/>
<path d="M259.46 267.53L248.31 278.67L259.46 289.82H267.03L255.88 278.67L267.03 267.53H259.46Z" fill="#1C3245"/>
<path d="M279.72 267.53L268.58 278.67L279.72 289.82H287.29L276.14 278.67L287.29 267.53H279.72Z" fill="#1C3245"/>
<path d="M299.98 267.53L288.84 278.67L299.98 289.82H307.55L296.4 278.67L307.55 267.53H299.98Z" fill="#1C3245"/>
<path d="M320.24 267.53L309.1 278.67L320.24 289.82H327.81L316.66 278.67L327.81 267.53H320.24Z" fill="#1C3245"/>
<path d="M340.5 267.53L329.36 278.67L340.5 289.82H348.07L336.92 278.67L348.07 267.53H340.5Z" fill="#1C3245"/>
<path d="M360.76 267.53L349.62 278.67L360.76 289.82H368.33L357.18 278.67L368.33 267.53H360.76Z" fill="#1C3245"/>
<path d="M381.02 267.53L369.88 278.67L381.02 289.82H388.59L377.44 278.67L388.59 267.53H381.02Z" fill="#1C3245"/>
<path d="M401.28 267.53L390.14 278.67L401.28 289.82H408.85L397.7 278.67L408.85 267.53H401.28Z" fill="#1C3245"/>
<path d="M421.54 267.53L410.4 278.67L421.54 289.82H429.11L417.96 278.67L429.11 267.53H421.54Z" fill="#1C3245"/>
<path d="M441.8 267.53L430.66 278.67L441.8 289.82H449.37L438.23 278.67L449.37 267.53H441.8Z" fill="#1C3245"/>
<path d="M462.07 267.53L450.92 278.67L462.07 289.82H469.63L458.49 278.67L469.63 267.53H462.07Z" fill="#1C3245"/>
<path d="M482.33 267.53L471.18 278.67L482.33 289.82H489.89L478.75 278.67L489.89 267.53H482.33Z" fill="#1C3245"/>
<path d="M502.59 267.53L491.44 278.67L502.59 289.82H510.15L499.01 278.67L510.15 267.53H502.59Z" fill="#1C3245"/>
<path d="M56.8502 289.82L45.7102 300.96L56.8502 312.11H64.4202L53.2802 300.96L64.4202 289.82H56.8502Z" fill="#1C3245"/>
<path d="M77.1202 289.82L65.9702 300.96L77.1202 312.11H84.6802L73.5402 300.96L84.6802 289.82H77.1202Z" fill="#1C3245"/>
<path d="M97.3802 289.82L86.2302 300.96L97.3802 312.11H104.94L93.8002 300.96L104.94 289.82H97.3802Z" fill="#1C3245"/>
<path d="M117.64 289.82L106.49 300.96L117.64 312.11H125.2L114.06 300.96L125.2 289.82H117.64Z" fill="#1C3245"/>
<path d="M137.9 289.82L126.75 300.96L137.9 312.11H145.46L134.32 300.96L145.46 289.82H137.9Z" fill="#1C3245"/>
<path d="M158.16 289.82L147.01 300.96L158.16 312.11H165.72L154.58 300.96L165.72 289.82H158.16Z" fill="#1C3245"/>
<path d="M178.42 289.82L167.27 300.96L178.42 312.11H185.98L174.84 300.96L185.98 289.82H178.42Z" fill="#1C3245"/>
<path d="M198.68 289.82L187.53 300.96L198.68 312.11H206.24L195.1 300.96L206.24 289.82H198.68Z" fill="#1C3245"/>
<path d="M218.94 289.82L207.79 300.96L218.94 312.11H226.5L215.36 300.96L226.5 289.82H218.94Z" fill="#1C3245"/>
<path d="M239.2 289.82L228.05 300.96L239.2 312.11H246.77L235.62 300.96L246.77 289.82H239.2Z" fill="#1C3245"/>
<path d="M259.46 289.82L248.31 300.96L259.46 312.11H267.03L255.88 300.96L267.03 289.82H259.46Z" fill="#1C3245"/>
<path d="M279.72 289.82L268.58 300.96L279.72 312.11H287.29L276.14 300.96L287.29 289.82H279.72Z" fill="#1C3245"/>
<path d="M299.98 289.82L288.84 300.96L299.98 312.11H307.55L296.4 300.96L307.55 289.82H299.98Z" fill="#1C3245"/>
<path d="M320.24 289.82L309.1 300.96L320.24 312.11H327.81L316.66 300.96L327.81 289.82H320.24Z" fill="#1C3245"/>
<path d="M340.5 289.82L329.36 300.96L340.5 312.11H348.07L336.92 300.96L348.07 289.82H340.5Z" fill="#1C3245"/>
<path d="M360.76 289.82L349.62 300.96L360.76 312.11H368.33L357.18 300.96L368.33 289.82H360.76Z" fill="#1C3245"/>
<path d="M381.02 289.82L369.88 300.96L381.02 312.11H388.59L377.44 300.96L388.59 289.82H381.02Z" fill="#1C3245"/>
<path d="M401.28 289.82L390.14 300.96L401.28 312.11H408.85L397.7 300.96L408.85 289.82H401.28Z" fill="#1C3245"/>
<path d="M421.54 289.82L410.4 300.96L421.54 312.11H429.11L417.96 300.96L429.11 289.82H421.54Z" fill="#1C3245"/>
<path d="M441.8 289.82L430.66 300.96L441.8 312.11H449.37L438.23 300.96L449.37 289.82H441.8Z" fill="#1C3245"/>
<path d="M462.07 289.82L450.92 300.96L462.07 312.11H469.63L458.49 300.96L469.63 289.82H462.07Z" fill="#1C3245"/>
<path d="M482.33 289.82L471.18 300.96L482.33 312.11H489.89L478.75 300.96L489.89 289.82H482.33Z" fill="#1C3245"/>
<path d="M502.59 289.82L491.44 300.96L502.59 312.11H510.15L499.01 300.96L510.15 289.82H502.59Z" fill="#1C3245"/>
<path d="M56.8502 312.11L45.7102 323.25L56.8502 334.4H64.4202L53.2802 323.25L64.4202 312.11H56.8502Z" fill="#1C3245"/>
<path d="M77.1202 312.11L65.9702 323.25L77.1202 334.4H84.6802L73.5402 323.25L84.6802 312.11H77.1202Z" fill="#1C3245"/>
<path d="M97.3802 312.11L86.2302 323.25L97.3802 334.4H104.94L93.8002 323.25L104.94 312.11H97.3802Z" fill="#1C3245"/>
<path d="M117.64 312.11L106.49 323.25L117.64 334.4H125.2L114.06 323.25L125.2 312.11H117.64Z" fill="#1C3245"/>
<path d="M137.9 312.11L126.75 323.25L137.9 334.4H145.46L134.32 323.25L145.46 312.11H137.9Z" fill="#1C3245"/>
<path d="M158.16 312.11L147.01 323.25L158.16 334.4H165.72L154.58 323.25L165.72 312.11H158.16Z" fill="#1C3245"/>
<path d="M178.42 312.11L167.27 323.25L178.42 334.4H185.98L174.84 323.25L185.98 312.11H178.42Z" fill="#1C3245"/>
<path d="M198.68 312.11L187.53 323.25L198.68 334.4H206.24L195.1 323.25L206.24 312.11H198.68Z" fill="#1C3245"/>
<path d="M218.94 312.11L207.79 323.25L218.94 334.4H226.5L215.36 323.25L226.5 312.11H218.94Z" fill="#1C3245"/>
<path d="M239.2 312.11L228.05 323.25L239.2 334.4H246.77L235.62 323.25L246.77 312.11H239.2Z" fill="#1C3245"/>
<path d="M259.46 312.11L248.31 323.25L259.46 334.4H267.03L255.88 323.25L267.03 312.11H259.46Z" fill="#1C3245"/>
<path d="M279.72 312.11L268.58 323.25L279.72 334.4H287.29L276.14 323.25L287.29 312.11H279.72Z" fill="#1C3245"/>
<path d="M299.98 312.11L288.84 323.25L299.98 334.4H307.55L296.4 323.25L307.55 312.11H299.98Z" fill="#1C3245"/>
<path d="M320.24 312.11L309.1 323.25L320.24 334.4H327.81L316.66 323.25L327.81 312.11H320.24Z" fill="#1C3245"/>
<path d="M340.5 312.11L329.36 323.25L340.5 334.4H348.07L336.92 323.25L348.07 312.11H340.5Z" fill="#1C3245"/>
<path d="M360.76 312.11L349.62 323.25L360.76 334.4H368.33L357.18 323.25L368.33 312.11H360.76Z" fill="#1C3245"/>
<path d="M381.02 312.11L369.88 323.25L381.02 334.4H388.59L377.44 323.25L388.59 312.11H381.02Z" fill="#1C3245"/>
<path d="M401.28 312.11L390.14 323.25L401.28 334.4H408.85L397.7 323.25L408.85 312.11H401.28Z" fill="#1C3245"/>
<path d="M421.54 312.11L410.4 323.25L421.54 334.4H429.11L417.96 323.25L429.11 312.11H421.54Z" fill="#1C3245"/>
<path d="M441.8 312.11L430.66 323.25L441.8 334.4H449.37L438.23 323.25L449.37 312.11H441.8Z" fill="#1C3245"/>
<path d="M462.07 312.11L450.92 323.25L462.07 334.4H469.63L458.49 323.25L469.63 312.11H462.07Z" fill="#1C3245"/>
<path d="M482.33 312.11L471.18 323.25L482.33 334.4H489.89L478.75 323.25L489.89 312.11H482.33Z" fill="#1C3245"/>
<path d="M502.59 312.11L491.44 323.25L502.59 334.4H510.15L499.01 323.25L510.15 312.11H502.59Z" fill="#1C3245"/>
<path d="M56.8502 334.4L45.7102 345.54L56.8502 356.69H64.4202L53.2802 345.54L64.4202 334.4H56.8502Z" fill="#1C3245"/>
<path d="M77.1202 334.4L65.9702 345.54L77.1202 356.69H84.6802L73.5402 345.54L84.6802 334.4H77.1202Z" fill="#1C3245"/>
<path d="M97.3802 334.4L86.2302 345.54L97.3802 356.69H104.94L93.8002 345.54L104.94 334.4H97.3802Z" fill="#1C3245"/>
<path d="M117.64 334.4L106.49 345.54L117.64 356.69H125.2L114.06 345.54L125.2 334.4H117.64Z" fill="#1C3245"/>
<path d="M137.9 334.4L126.75 345.54L137.9 356.69H145.46L134.32 345.54L145.46 334.4H137.9Z" fill="#1C3245"/>
<path d="M158.16 334.4L147.01 345.54L158.16 356.69H165.72L154.58 345.54L165.72 334.4H158.16Z" fill="#1C3245"/>
<path d="M178.42 334.4L167.27 345.54L178.42 356.69H185.98L174.84 345.54L185.98 334.4H178.42Z" fill="#1C3245"/>
<path d="M198.68 334.4L187.53 345.54L198.68 356.69H206.24L195.1 345.54L206.24 334.4H198.68Z" fill="#1C3245"/>
<path d="M218.94 334.4L207.79 345.54L218.94 356.69H226.5L215.36 345.54L226.5 334.4H218.94Z" fill="#1C3245"/>
<path d="M239.2 334.4L228.05 345.54L239.2 356.69H246.77L235.62 345.54L246.77 334.4H239.2Z" fill="#1C3245"/>
<path d="M259.46 334.4L248.31 345.54L259.46 356.69H267.03L255.88 345.54L267.03 334.4H259.46Z" fill="#1C3245"/>
<path d="M279.72 334.4L268.58 345.54L279.72 356.69H287.29L276.14 345.54L287.29 334.4H279.72Z" fill="#1C3245"/>
<path d="M299.98 334.4L288.84 345.54L299.98 356.69H307.55L296.4 345.54L307.55 334.4H299.98Z" fill="#1C3245"/>
<path d="M320.24 334.4L309.1 345.54L320.24 356.69H327.81L316.66 345.54L327.81 334.4H320.24Z" fill="#1C3245"/>
<path d="M340.5 334.4L329.36 345.54L340.5 356.69H348.07L336.92 345.54L348.07 334.4H340.5Z" fill="#1C3245"/>
<path d="M360.76 334.4L349.62 345.54L360.76 356.69H368.33L357.18 345.54L368.33 334.4H360.76Z" fill="#1C3245"/>
<path d="M381.02 334.4L369.88 345.54L381.02 356.69H388.59L377.44 345.54L388.59 334.4H381.02Z" fill="#1C3245"/>
<path d="M401.28 334.4L390.14 345.54L401.28 356.69H408.85L397.7 345.54L408.85 334.4H401.28Z" fill="#1C3245"/>
<path d="M421.54 334.4L410.4 345.54L421.54 356.69H429.11L417.96 345.54L429.11 334.4H421.54Z" fill="#1C3245"/>
<path d="M441.8 334.4L430.66 345.54L441.8 356.69H449.37L438.23 345.54L449.37 334.4H441.8Z" fill="#1C3245"/>
<path d="M462.07 334.4L450.92 345.54L462.07 356.69H469.63L458.49 345.54L469.63 334.4H462.07Z" fill="#1C3245"/>
<path d="M482.33 334.4L471.18 345.54L482.33 356.69H489.89L478.75 345.54L489.89 334.4H482.33Z" fill="#1C3245"/>
<path d="M502.59 334.4L491.44 345.54L502.59 356.69H510.15L499.01 345.54L510.15 334.4H502.59Z" fill="#1C3245"/>
<path d="M56.8502 356.69L45.7102 367.83L56.8502 378.98H64.4202L53.2802 367.83L64.4202 356.69H56.8502Z" fill="#1C3245"/>
<path d="M77.1202 356.69L65.9702 367.83L77.1202 378.98H84.6802L73.5402 367.83L84.6802 356.69H77.1202Z" fill="#1C3245"/>
<path d="M97.3802 356.69L86.2302 367.83L97.3802 378.98H104.94L93.8002 367.83L104.94 356.69H97.3802Z" fill="#1C3245"/>
<path d="M117.64 356.69L106.49 367.83L117.64 378.98H125.2L114.06 367.83L125.2 356.69H117.64Z" fill="#1C3245"/>
<path d="M137.9 356.69L126.75 367.83L137.9 378.98H145.46L134.32 367.83L145.46 356.69H137.9Z" fill="#1C3245"/>
<path d="M158.16 356.69L147.01 367.83L158.16 378.98H165.72L154.58 367.83L165.72 356.69H158.16Z" fill="#1C3245"/>
<path d="M178.42 356.69L167.27 367.83L178.42 378.98H185.98L174.84 367.83L185.98 356.69H178.42Z" fill="#1C3245"/>
<path d="M198.68 356.69L187.53 367.83L198.68 378.98H206.24L195.1 367.83L206.24 356.69H198.68Z" fill="#1C3245"/>
<path d="M218.94 356.69L207.79 367.83L218.94 378.98H226.5L215.36 367.83L226.5 356.69H218.94Z" fill="#1C3245"/>
<path d="M239.2 356.69L228.05 367.83L239.2 378.98H246.77L235.62 367.83L246.77 356.69H239.2Z" fill="#1C3245"/>
<path d="M259.46 356.69L248.31 367.83L259.46 378.98H267.03L255.88 367.83L267.03 356.69H259.46Z" fill="#1C3245"/>
<path d="M279.72 356.69L268.58 367.83L279.72 378.98H287.29L276.14 367.83L287.29 356.69H279.72Z" fill="#1C3245"/>
<path d="M299.98 356.69L288.84 367.83L299.98 378.98H307.55L296.4 367.83L307.55 356.69H299.98Z" fill="#1C3245"/>
<path d="M320.24 356.69L309.1 367.83L320.24 378.98H327.81L316.66 367.83L327.81 356.69H320.24Z" fill="#1C3245"/>
<path d="M340.5 356.69L329.36 367.83L340.5 378.98H348.07L336.92 367.83L348.07 356.69H340.5Z" fill="#1C3245"/>
<path d="M360.76 356.69L349.62 367.83L360.76 378.98H368.33L357.18 367.83L368.33 356.69H360.76Z" fill="#1C3245"/>
<path d="M381.02 356.69L369.88 367.83L381.02 378.98H388.59L377.44 367.83L388.59 356.69H381.02Z" fill="#1C3245"/>
<path d="M401.28 356.69L390.14 367.83L401.28 378.98H408.85L397.7 367.83L408.85 356.69H401.28Z" fill="#1C3245"/>
<path d="M421.54 356.69L410.4 367.83L421.54 378.98H429.11L417.96 367.83L429.11 356.69H421.54Z" fill="#1C3245"/>
<path d="M441.8 356.69L430.66 367.83L441.8 378.98H449.37L438.23 367.83L449.37 356.69H441.8Z" fill="#1C3245"/>
<path d="M462.07 356.69L450.92 367.83L462.07 378.98H469.63L458.49 367.83L469.63 356.69H462.07Z" fill="#1C3245"/>
<path d="M482.33 356.69L471.18 367.83L482.33 378.98H489.89L478.75 367.83L489.89 356.69H482.33Z" fill="#1C3245"/>
<path d="M502.59 356.69L491.44 367.83L502.59 378.98H510.15L499.01 367.83L510.15 356.69H502.59Z" fill="#1C3245"/>
<path d="M56.8502 378.98L45.7102 390.13L56.8502 401.27H64.4202L53.2802 390.13L64.4202 378.98H56.8502Z" fill="#1C3245"/>
<path d="M77.1202 378.98L65.9702 390.13L77.1202 401.27H84.6802L73.5402 390.13L84.6802 378.98H77.1202Z" fill="#1C3245"/>
<path d="M97.3802 378.98L86.2302 390.13L97.3802 401.27H104.94L93.8002 390.13L104.94 378.98H97.3802Z" fill="#1C3245"/>
<path d="M117.64 378.98L106.49 390.13L117.64 401.27H125.2L114.06 390.13L125.2 378.98H117.64Z" fill="#1C3245"/>
<path d="M137.9 378.98L126.75 390.13L137.9 401.27H145.46L134.32 390.13L145.46 378.98H137.9Z" fill="#1C3245"/>
<path d="M158.16 378.98L147.01 390.13L158.16 401.27H165.72L154.58 390.13L165.72 378.98H158.16Z" fill="#1C3245"/>
<path d="M178.42 378.98L167.27 390.13L178.42 401.27H185.98L174.84 390.13L185.98 378.98H178.42Z" fill="#1C3245"/>
<path d="M198.68 378.98L187.53 390.13L198.68 401.27H206.24L195.1 390.13L206.24 378.98H198.68Z" fill="#1C3245"/>
<path d="M218.94 378.98L207.79 390.13L218.94 401.27H226.5L215.36 390.13L226.5 378.98H218.94Z" fill="#1C3245"/>
<path d="M239.2 378.98L228.05 390.13L239.2 401.27H246.77L235.62 390.13L246.77 378.98H239.2Z" fill="#1C3245"/>
<path d="M259.46 378.98L248.31 390.13L259.46 401.27H267.03L255.88 390.13L267.03 378.98H259.46Z" fill="#1C3245"/>
<path d="M279.72 378.98L268.58 390.13L279.72 401.27H287.29L276.14 390.13L287.29 378.98H279.72Z" fill="#1C3245"/>
<path d="M299.98 378.98L288.84 390.13L299.98 401.27H307.55L296.4 390.13L307.55 378.98H299.98Z" fill="#1C3245"/>
<path d="M320.24 378.98L309.1 390.13L320.24 401.27H327.81L316.66 390.13L327.81 378.98H320.24Z" fill="#1C3245"/>
<path d="M340.5 378.98L329.36 390.13L340.5 401.27H348.07L336.92 390.13L348.07 378.98H340.5Z" fill="#1C3245"/>
<path d="M360.76 378.98L349.62 390.13L360.76 401.27H368.33L357.18 390.13L368.33 378.98H360.76Z" fill="#1C3245"/>
<path d="M381.02 378.98L369.88 390.13L381.02 401.27H388.59L377.44 390.13L388.59 378.98H381.02Z" fill="#1C3245"/>
<path d="M401.28 378.98L390.14 390.13L401.28 401.27H408.85L397.7 390.13L408.85 378.98H401.28Z" fill="#1C3245"/>
<path d="M421.54 378.98L410.4 390.13L421.54 401.27H429.11L417.96 390.13L429.11 378.98H421.54Z" fill="#1C3245"/>
<path d="M441.8 378.98L430.66 390.13L441.8 401.27H449.37L438.23 390.13L449.37 378.98H441.8Z" fill="#1C3245"/>
<path d="M462.07 378.98L450.92 390.13L462.07 401.27H469.63L458.49 390.13L469.63 378.98H462.07Z" fill="#1C3245"/>
<path d="M482.33 378.98L471.18 390.13L482.33 401.27H489.89L478.75 390.13L489.89 378.98H482.33Z" fill="#1C3245"/>
<path d="M502.59 378.98L491.44 390.13L502.59 401.27H510.15L499.01 390.13L510.15 378.98H502.59Z" fill="#1C3245"/>
<path d="M56.8502 401.27L45.7102 412.42L56.8502 423.56H64.4202L53.2802 412.42L64.4202 401.27H56.8502Z" fill="#1C3245"/>
<path d="M77.1202 401.27L65.9702 412.42L77.1202 423.56H84.6802L73.5402 412.42L84.6802 401.27H77.1202Z" fill="#1C3245"/>
<path d="M97.3802 401.27L86.2302 412.42L97.3802 423.56H104.94L93.8002 412.42L104.94 401.27H97.3802Z" fill="#1C3245"/>
<path d="M117.64 401.27L106.49 412.42L117.64 423.56H125.2L114.06 412.42L125.2 401.27H117.64Z" fill="#1C3245"/>
<path d="M137.9 401.27L126.75 412.42L137.9 423.56H145.46L134.32 412.42L145.46 401.27H137.9Z" fill="#1C3245"/>
<path d="M158.16 401.27L147.01 412.42L158.16 423.56H165.72L154.58 412.42L165.72 401.27H158.16Z" fill="#1C3245"/>
<path d="M178.42 401.27L167.27 412.42L178.42 423.56H185.98L174.84 412.42L185.98 401.27H178.42Z" fill="#1C3245"/>
<path d="M198.68 401.27L187.53 412.42L198.68 423.56H206.24L195.1 412.42L206.24 401.27H198.68Z" fill="#1C3245"/>
<path d="M218.94 401.27L207.79 412.42L218.94 423.56H226.5L215.36 412.42L226.5 401.27H218.94Z" fill="#1C3245"/>
<path d="M239.2 401.27L228.05 412.42L239.2 423.56H246.77L235.62 412.42L246.77 401.27H239.2Z" fill="#1C3245"/>
<path d="M259.46 401.27L248.31 412.42L259.46 423.56H267.03L255.88 412.42L267.03 401.27H259.46Z" fill="#1C3245"/>
<path d="M279.72 401.27L268.58 412.42L279.72 423.56H287.29L276.14 412.42L287.29 401.27H279.72Z" fill="#1C3245"/>
<path d="M299.98 401.27L288.84 412.42L299.98 423.56H307.55L296.4 412.42L307.55 401.27H299.98Z" fill="#1C3245"/>
<path d="M320.24 401.27L309.1 412.42L320.24 423.56H327.81L316.66 412.42L327.81 401.27H320.24Z" fill="#1C3245"/>
<path d="M340.5 401.27L329.36 412.42L340.5 423.56H348.07L336.92 412.42L348.07 401.27H340.5Z" fill="#1C3245"/>
<path d="M360.76 401.27L349.62 412.42L360.76 423.56H368.33L357.18 412.42L368.33 401.27H360.76Z" fill="#1C3245"/>
<path d="M381.02 401.27L369.88 412.42L381.02 423.56H388.59L377.44 412.42L388.59 401.27H381.02Z" fill="#1C3245"/>
<path d="M401.28 401.27L390.14 412.42L401.28 423.56H408.85L397.7 412.42L408.85 401.27H401.28Z" fill="#1C3245"/>
<path d="M421.54 401.27L410.4 412.42L421.54 423.56H429.11L417.96 412.42L429.11 401.27H421.54Z" fill="#1C3245"/>
<path d="M441.8 401.27L430.66 412.42L441.8 423.56H449.37L438.23 412.42L449.37 401.27H441.8Z" fill="#1C3245"/>
<path d="M462.07 401.27L450.92 412.42L462.07 423.56H469.63L458.49 412.42L469.63 401.27H462.07Z" fill="#1C3245"/>
<path d="M482.33 401.27L471.18 412.42L482.33 423.56H489.89L478.75 412.42L489.89 401.27H482.33Z" fill="#1C3245"/>
<path d="M502.59 401.27L491.44 412.42L502.59 423.56H510.15L499.01 412.42L510.15 401.27H502.59Z" fill="#1C3245"/>
<path d="M56.8502 423.56L45.7102 434.71L56.8502 445.85H64.4202L53.2802 434.71L64.4202 423.56H56.8502Z" fill="#1C3245"/>
<path d="M77.1202 423.56L65.9702 434.71L77.1202 445.85H84.6802L73.5402 434.71L84.6802 423.56H77.1202Z" fill="#1C3245"/>
<path d="M97.3802 423.56L86.2302 434.71L97.3802 445.85H104.94L93.8002 434.71L104.94 423.56H97.3802Z" fill="#1C3245"/>
<path d="M117.64 423.56L106.49 434.71L117.64 445.85H125.2L114.06 434.71L125.2 423.56H117.64Z" fill="#1C3245"/>
<path d="M137.9 423.56L126.75 434.71L137.9 445.85H145.46L134.32 434.71L145.46 423.56H137.9Z" fill="#1C3245"/>
<path d="M158.16 423.56L147.01 434.71L158.16 445.85H165.72L154.58 434.71L165.72 423.56H158.16Z" fill="#1C3245"/>
<path d="M178.42 423.56L167.27 434.71L178.42 445.85H185.98L174.84 434.71L185.98 423.56H178.42Z" fill="#1C3245"/>
<path d="M198.68 423.56L187.53 434.71L198.68 445.85H206.24L195.1 434.71L206.24 423.56H198.68Z" fill="#1C3245"/>
<path d="M218.94 423.56L207.79 434.71L218.94 445.85H226.5L215.36 434.71L226.5 423.56H218.94Z" fill="#1C3245"/>
<path d="M239.2 423.56L228.05 434.71L239.2 445.85H246.77L235.62 434.71L246.77 423.56H239.2Z" fill="#1C3245"/>
<path d="M259.46 423.56L248.31 434.71L259.46 445.85H267.03L255.88 434.71L267.03 423.56H259.46Z" fill="#1C3245"/>
<path d="M279.72 423.56L268.58 434.71L279.72 445.85H287.29L276.14 434.71L287.29 423.56H279.72Z" fill="#1C3245"/>
<path d="M299.98 423.56L288.84 434.71L299.98 445.85H307.55L296.4 434.71L307.55 423.56H299.98Z" fill="#1C3245"/>
<path d="M320.24 423.56L309.1 434.71L320.24 445.85H327.81L316.66 434.71L327.81 423.56H320.24Z" fill="#1C3245"/>
<path d="M340.5 423.56L329.36 434.71L340.5 445.85H348.07L336.92 434.71L348.07 423.56H340.5Z" fill="#1C3245"/>
<path d="M360.76 423.56L349.62 434.71L360.76 445.85H368.33L357.18 434.71L368.33 423.56H360.76Z" fill="#1C3245"/>
<path d="M381.02 423.56L369.88 434.71L381.02 445.85H388.59L377.44 434.71L388.59 423.56H381.02Z" fill="#1C3245"/>
<path d="M401.28 423.56L390.14 434.71L401.28 445.85H408.85L397.7 434.71L408.85 423.56H401.28Z" fill="#1C3245"/>
<path d="M421.54 423.56L410.4 434.71L421.54 445.85H429.11L417.96 434.71L429.11 423.56H421.54Z" fill="#1C3245"/>
<path d="M441.8 423.56L430.66 434.71L441.8 445.85H449.37L438.23 434.71L449.37 423.56H441.8Z" fill="#1C3245"/>
<path d="M462.07 423.56L450.92 434.71L462.07 445.85H469.63L458.49 434.71L469.63 423.56H462.07Z" fill="#1C3245"/>
<path d="M482.33 423.56L471.18 434.71L482.33 445.85H489.89L478.75 434.71L489.89 423.56H482.33Z" fill="#1C3245"/>
<path d="M502.59 423.56L491.44 434.71L502.59 445.85H510.15L499.01 434.71L510.15 423.56H502.59Z" fill="#1C3245"/>
<path d="M56.8502 445.85L45.7102 457L56.8502 468.14H64.4202L53.2802 457L64.4202 445.85H56.8502Z" fill="#1C3245"/>
<path d="M77.1202 445.85L65.9702 457L77.1202 468.14H84.6802L73.5402 457L84.6802 445.85H77.1202Z" fill="#1C3245"/>
<path d="M97.3802 445.85L86.2302 457L97.3802 468.14H104.94L93.8002 457L104.94 445.85H97.3802Z" fill="#1C3245"/>
<path d="M117.64 445.85L106.49 457L117.64 468.14H125.2L114.06 457L125.2 445.85H117.64Z" fill="#1C3245"/>
<path d="M137.9 445.85L126.75 457L137.9 468.14H145.46L134.32 457L145.46 445.85H137.9Z" fill="#1C3245"/>
<path d="M158.16 445.85L147.01 457L158.16 468.14H165.72L154.58 457L165.72 445.85H158.16Z" fill="#1C3245"/>
<path d="M178.42 445.85L167.27 457L178.42 468.14H185.98L174.84 457L185.98 445.85H178.42Z" fill="#1C3245"/>
<path d="M198.68 445.85L187.53 457L198.68 468.14H206.24L195.1 457L206.24 445.85H198.68Z" fill="#1C3245"/>
<path d="M218.94 445.85L207.79 457L218.94 468.14H226.5L215.36 457L226.5 445.85H218.94Z" fill="#1C3245"/>
<path d="M239.2 445.85L228.05 457L239.2 468.14H246.77L235.62 457L246.77 445.85H239.2Z" fill="#1C3245"/>
<path d="M259.46 445.85L248.31 457L259.46 468.14H267.03L255.88 457L267.03 445.85H259.46Z" fill="#1C3245"/>
<path d="M279.72 445.85L268.58 457L279.72 468.14H287.29L276.14 457L287.29 445.85H279.72Z" fill="#1C3245"/>
<path d="M299.98 445.85L288.84 457L299.98 468.14H307.55L296.4 457L307.55 445.85H299.98Z" fill="#1C3245"/>
<path d="M320.24 445.85L309.1 457L320.24 468.14H327.81L316.66 457L327.81 445.85H320.24Z" fill="#1C3245"/>
<path d="M340.5 445.85L329.36 457L340.5 468.14H348.07L336.92 457L348.07 445.85H340.5Z" fill="#1C3245"/>
<path d="M360.76 445.85L349.62 457L360.76 468.14H368.33L357.18 457L368.33 445.85H360.76Z" fill="#1C3245"/>
<path d="M381.02 445.85L369.88 457L381.02 468.14H388.59L377.44 457L388.59 445.85H381.02Z" fill="#1C3245"/>
<path d="M401.28 445.85L390.14 457L401.28 468.14H408.85L397.7 457L408.85 445.85H401.28Z" fill="#1C3245"/>
<path d="M421.54 445.85L410.4 457L421.54 468.14H429.11L417.96 457L429.11 445.85H421.54Z" fill="#1C3245"/>
<path d="M441.8 445.85L430.66 457L441.8 468.14H449.37L438.23 457L449.37 445.85H441.8Z" fill="#1C3245"/>
<path d="M462.07 445.85L450.92 457L462.07 468.14H469.63L458.49 457L469.63 445.85H462.07Z" fill="#1C3245"/>
<path d="M482.33 445.85L471.18 457L482.33 468.14H489.89L478.75 457L489.89 445.85H482.33Z" fill="#1C3245"/>
<path d="M502.59 445.85L491.44 457L502.59 468.14H510.15L499.01 457L510.15 445.85H502.59Z" fill="#1C3245"/>
<path d="M56.8502 468.14L45.7102 479.29L56.8502 490.43H64.4202L53.2802 479.29L64.4202 468.14H56.8502Z" fill="#1C3245"/>
<path d="M77.1202 468.14L65.9702 479.29L77.1202 490.43H84.6802L73.5402 479.29L84.6802 468.14H77.1202Z" fill="#1C3245"/>
<path d="M97.3802 468.14L86.2302 479.29L97.3802 490.43H104.94L93.8002 479.29L104.94 468.14H97.3802Z" fill="#1C3245"/>
<path d="M117.64 468.14L106.49 479.29L117.64 490.43H125.2L114.06 479.29L125.2 468.14H117.64Z" fill="#1C3245"/>
<path d="M137.9 468.14L126.75 479.29L137.9 490.43H145.46L134.32 479.29L145.46 468.14H137.9Z" fill="#1C3245"/>
<path d="M158.16 468.14L147.01 479.29L158.16 490.43H165.72L154.58 479.29L165.72 468.14H158.16Z" fill="#1C3245"/>
<path d="M178.42 468.14L167.27 479.29L178.42 490.43H185.98L174.84 479.29L185.98 468.14H178.42Z" fill="#1C3245"/>
<path d="M198.68 468.14L187.53 479.29L198.68 490.43H206.24L195.1 479.29L206.24 468.14H198.68Z" fill="#1C3245"/>
<path d="M218.94 468.14L207.79 479.29L218.94 490.43H226.5L215.36 479.29L226.5 468.14H218.94Z" fill="#1C3245"/>
<path d="M239.2 468.14L228.05 479.29L239.2 490.43H246.77L235.62 479.29L246.77 468.14H239.2Z" fill="#1C3245"/>
<path d="M259.46 468.14L248.31 479.29L259.46 490.43H267.03L255.88 479.29L267.03 468.14H259.46Z" fill="#1C3245"/>
<path d="M279.72 468.14L268.58 479.29L279.72 490.43H287.29L276.14 479.29L287.29 468.14H279.72Z" fill="#1C3245"/>
<path d="M299.98 468.14L288.84 479.29L299.98 490.43H307.55L296.4 479.29L307.55 468.14H299.98Z" fill="#1C3245"/>
<path d="M320.24 468.14L309.1 479.29L320.24 490.43H327.81L316.66 479.29L327.81 468.14H320.24Z" fill="#1C3245"/>
<path d="M340.5 468.14L329.36 479.29L340.5 490.43H348.07L336.92 479.29L348.07 468.14H340.5Z" fill="#1C3245"/>
<path d="M360.76 468.14L349.62 479.29L360.76 490.43H368.33L357.18 479.29L368.33 468.14H360.76Z" fill="#1C3245"/>
<path d="M381.02 468.14L369.88 479.29L381.02 490.43H388.59L377.44 479.29L388.59 468.14H381.02Z" fill="#1C3245"/>
<path d="M401.28 468.14L390.14 479.29L401.28 490.43H408.85L397.7 479.29L408.85 468.14H401.28Z" fill="#1C3245"/>
<path d="M421.54 468.14L410.4 479.29L421.54 490.43H429.11L417.96 479.29L429.11 468.14H421.54Z" fill="#1C3245"/>
<path d="M441.8 468.14L430.66 479.29L441.8 490.43H449.37L438.23 479.29L449.37 468.14H441.8Z" fill="#1C3245"/>
<path d="M462.07 468.14L450.92 479.29L462.07 490.43H469.63L458.49 479.29L469.63 468.14H462.07Z" fill="#1C3245"/>
<path d="M482.33 468.14L471.18 479.29L482.33 490.43H489.89L478.75 479.29L489.89 468.14H482.33Z" fill="#1C3245"/>
<path d="M502.59 468.14L491.44 479.29L502.59 490.43H510.15L499.01 479.29L510.15 468.14H502.59Z" fill="#1C3245"/>
<path d="M56.8502 490.43L45.7102 501.58L56.8502 512.72H64.4202L53.2802 501.58L64.4202 490.43H56.8502Z" fill="#1C3245"/>
<path d="M77.1202 490.43L65.9702 501.58L77.1202 512.72H84.6802L73.5402 501.58L84.6802 490.43H77.1202Z" fill="#1C3245"/>
<path d="M97.3802 490.43L86.2302 501.58L97.3802 512.72H104.94L93.8002 501.58L104.94 490.43H97.3802Z" fill="#1C3245"/>
<path d="M117.64 490.43L106.49 501.58L117.64 512.72H125.2L114.06 501.58L125.2 490.43H117.64Z" fill="#1C3245"/>
<path d="M137.9 490.43L126.75 501.58L137.9 512.72H145.46L134.32 501.58L145.46 490.43H137.9Z" fill="#1C3245"/>
<path d="M158.16 490.43L147.01 501.58L158.16 512.72H165.72L154.58 501.58L165.72 490.43H158.16Z" fill="#1C3245"/>
<path d="M178.42 490.43L167.27 501.58L178.42 512.72H185.98L174.84 501.58L185.98 490.43H178.42Z" fill="#1C3245"/>
<path d="M198.68 490.43L187.53 501.58L198.68 512.72H206.24L195.1 501.58L206.24 490.43H198.68Z" fill="#1C3245"/>
<path d="M218.94 490.43L207.79 501.58L218.94 512.72H226.5L215.36 501.58L226.5 490.43H218.94Z" fill="#1C3245"/>
<path d="M239.2 490.43L228.05 501.58L239.2 512.72H246.77L235.62 501.58L246.77 490.43H239.2Z" fill="#1C3245"/>
<path d="M259.46 490.43L248.31 501.58L259.46 512.72H267.03L255.88 501.58L267.03 490.43H259.46Z" fill="#1C3245"/>
<path d="M279.72 490.43L268.58 501.58L279.72 512.72H287.29L276.14 501.58L287.29 490.43H279.72Z" fill="#1C3245"/>
<path d="M299.98 490.43L288.84 501.58L299.98 512.72H307.55L296.4 501.58L307.55 490.43H299.98Z" fill="#1C3245"/>
<path d="M320.24 490.43L309.1 501.58L320.24 512.72H327.81L316.66 501.58L327.81 490.43H320.24Z" fill="#1C3245"/>
<path d="M340.5 490.43L329.36 501.58L340.5 512.72H348.07L336.92 501.58L348.07 490.43H340.5Z" fill="#1C3245"/>
<path d="M360.76 490.43L349.62 501.58L360.76 512.72H368.33L357.18 501.58L368.33 490.43H360.76Z" fill="#1C3245"/>
<path d="M381.02 490.43L369.88 501.58L381.02 512.72H388.59L377.44 501.58L388.59 490.43H381.02Z" fill="#1C3245"/>
<path d="M401.28 490.43L390.14 501.58L401.28 512.72H408.85L397.7 501.58L408.85 490.43H401.28Z" fill="#1C3245"/>
<path d="M421.54 490.43L410.4 501.58L421.54 512.72H429.11L417.96 501.58L429.11 490.43H421.54Z" fill="#1C3245"/>
<path d="M441.8 490.43L430.66 501.58L441.8 512.72H449.37L438.23 501.58L449.37 490.43H441.8Z" fill="#1C3245"/>
<path d="M462.07 490.43L450.92 501.58L462.07 512.72H469.63L458.49 501.58L469.63 490.43H462.07Z" fill="#1C3245"/>
<path d="M482.33 490.43L471.18 501.58L482.33 512.72H489.89L478.75 501.58L489.89 490.43H482.33Z" fill="#1C3245"/>
<path d="M502.59 490.43L491.44 501.58L502.59 512.72H510.15L499.01 501.58L510.15 490.43H502.59Z" fill="#1C3245"/>
<path d="M-2.37988 -22.25L-13.5199 -11.11L-2.37988 0.0400085H5.19012L-5.9599 -11.11L5.19012 -22.25H-2.37988Z" fill="#1C3245"/>
<path d="M17.8801 -22.25L6.74011 -11.11L17.8801 0.0400085H25.4501L14.3001 -11.11L25.4501 -22.25H17.8801Z" fill="#1C3245"/>
<path d="M38.1401 -22.25L27.0001 -11.11L38.1401 0.0400085H45.7101L34.5601 -11.11L45.7101 -22.25H38.1401Z" fill="#1C3245"/>
<path d="M-2.37988 0.0400391L-13.5199 11.19L-2.37988 22.33H5.19012L-5.9599 11.19L5.19012 0.0400391H-2.37988Z" fill="#1C3245"/>
<path d="M17.8801 0.0400391L6.74011 11.19L17.8801 22.33H25.4501L14.3001 11.19L25.4501 0.0400391H17.8801Z" fill="#1C3245"/>
<path d="M38.1401 0.0400391L27.0001 11.19L38.1401 22.33H45.7101L34.5601 11.19L45.7101 0.0400391H38.1401Z" fill="#1C3245"/>
<path d="M-2.37988 22.33L-13.5199 33.48L-2.37988 44.62H5.19012L-5.9599 33.48L5.19012 22.33H-2.37988Z" fill="#1C3245"/>
<path d="M17.8801 22.33L6.74011 33.48L17.8801 44.62H25.4501L14.3001 33.48L25.4501 22.33H17.8801Z" fill="#1C3245"/>
<path d="M38.1401 22.33L27.0001 33.48L38.1401 44.62H45.7101L34.5601 33.48L45.7101 22.33H38.1401Z" fill="#1C3245"/>
<path d="M-2.37988 44.62L-13.5199 55.77L-2.37988 66.91H5.19012L-5.9599 55.77L5.19012 44.62H-2.37988Z" fill="#1C3245"/>
<path d="M17.8801 44.62L6.74011 55.77L17.8801 66.91H25.4501L14.3001 55.77L25.4501 44.62H17.8801Z" fill="#1C3245"/>
<path d="M38.1401 44.62L27.0001 55.77L38.1401 66.91H45.7101L34.5601 55.77L45.7101 44.62H38.1401Z" fill="#1C3245"/>
<path d="M-2.37988 66.91L-13.5199 78.0601L-2.37988 89.2H5.19012L-5.9599 78.0601L5.19012 66.91H-2.37988Z" fill="#1C3245"/>
<path d="M17.8801 66.91L6.74011 78.0601L17.8801 89.2H25.4501L14.3001 78.0601L25.4501 66.91H17.8801Z" fill="#1C3245"/>
<path d="M38.1401 66.91L27.0001 78.0601L38.1401 89.2H45.7101L34.5601 78.0601L45.7101 66.91H38.1401Z" fill="#1C3245"/>
<path d="M-2.37988 89.2L-13.5199 100.35L-2.37988 111.49H5.19012L-5.9599 100.35L5.19012 89.2H-2.37988Z" fill="#1C3245"/>
<path d="M17.8801 89.2L6.74011 100.35L17.8801 111.49H25.4501L14.3001 100.35L25.4501 89.2H17.8801Z" fill="#1C3245"/>
<path d="M38.1401 89.2L27.0001 100.35L38.1401 111.49H45.7101L34.5601 100.35L45.7101 89.2H38.1401Z" fill="#1C3245"/>
<path d="M-2.37988 111.49L-13.5199 122.64L-2.37988 133.78H5.19012L-5.9599 122.64L5.19012 111.49H-2.37988Z" fill="#1C3245"/>
<path d="M17.8801 111.49L6.74011 122.64L17.8801 133.78H25.4501L14.3001 122.64L25.4501 111.49H17.8801Z" fill="#1C3245"/>
<path d="M38.1401 111.49L27.0001 122.64L38.1401 133.78H45.7101L34.5601 122.64L45.7101 111.49H38.1401Z" fill="#1C3245"/>
<path d="M-2.37988 133.78L-13.5199 144.93L-2.37988 156.07H5.19012L-5.9599 144.93L5.19012 133.78H-2.37988Z" fill="#1C3245"/>
<path d="M17.8801 133.78L6.74011 144.93L17.8801 156.07H25.4501L14.3001 144.93L25.4501 133.78H17.8801Z" fill="#1C3245"/>
<path d="M38.1401 133.78L27.0001 144.93L38.1401 156.07H45.7101L34.5601 144.93L45.7101 133.78H38.1401Z" fill="#1C3245"/>
<path d="M-2.37988 156.07L-13.5199 167.22L-2.37988 178.36H5.19012L-5.9599 167.22L5.19012 156.07H-2.37988Z" fill="#1C3245"/>
<path d="M17.8801 156.07L6.74011 167.22L17.8801 178.36H25.4501L14.3001 167.22L25.4501 156.07H17.8801Z" fill="#1C3245"/>
<path d="M38.1401 156.07L27.0001 167.22L38.1401 178.36H45.7101L34.5601 167.22L45.7101 156.07H38.1401Z" fill="#1C3245"/>
<path d="M-2.37988 178.36L-13.5199 189.51L-2.37988 200.65H5.19012L-5.9599 189.51L5.19012 178.36H-2.37988Z" fill="#1C3245"/>
<path d="M17.8801 178.36L6.74011 189.51L17.8801 200.65H25.4501L14.3001 189.51L25.4501 178.36H17.8801Z" fill="#1C3245"/>
<path d="M38.1401 178.36L27.0001 189.51L38.1401 200.65H45.7101L34.5601 189.51L45.7101 178.36H38.1401Z" fill="#1C3245"/>
<path d="M-2.37988 200.65L-13.5199 211.8L-2.37988 222.95H5.19012L-5.9599 211.8L5.19012 200.65H-2.37988Z" fill="#1C3245"/>
<path d="M17.8801 200.65L6.74011 211.8L17.8801 222.95H25.4501L14.3001 211.8L25.4501 200.65H17.8801Z" fill="#1C3245"/>
<path d="M38.1401 200.65L27.0001 211.8L38.1401 222.95H45.7101L34.5601 211.8L45.7101 200.65H38.1401Z" fill="#1C3245"/>
<path d="M-2.37988 222.95L-13.5199 234.09L-2.37988 245.24H5.19012L-5.9599 234.09L5.19012 222.95H-2.37988Z" fill="#1C3245"/>
<path d="M17.8801 222.95L6.74011 234.09L17.8801 245.24H25.4501L14.3001 234.09L25.4501 222.95H17.8801Z" fill="#1C3245"/>
<path d="M38.1401 222.95L27.0001 234.09L38.1401 245.24H45.7101L34.5601 234.09L45.7101 222.95H38.1401Z" fill="#1C3245"/>
<path d="M-2.37988 245.24L-13.5199 256.38L-2.37988 267.53H5.19012L-5.9599 256.38L5.19012 245.24H-2.37988Z" fill="#1C3245"/>
<path d="M17.8801 245.24L6.74011 256.38L17.8801 267.53H25.4501L14.3001 256.38L25.4501 245.24H17.8801Z" fill="#1C3245"/>
<path d="M38.1401 245.24L27.0001 256.38L38.1401 267.53H45.7101L34.5601 256.38L45.7101 245.24H38.1401Z" fill="#1C3245"/>
<path d="M-2.37988 267.53L-13.5199 278.67L-2.37988 289.82H5.19012L-5.9599 278.67L5.19012 267.53H-2.37988Z" fill="#1C3245"/>
<path d="M17.8801 267.53L6.74011 278.67L17.8801 289.82H25.4501L14.3001 278.67L25.4501 267.53H17.8801Z" fill="#1C3245"/>
<path d="M38.1401 267.53L27.0001 278.67L38.1401 289.82H45.7101L34.5601 278.67L45.7101 267.53H38.1401Z" fill="#1C3245"/>
<path d="M-2.37988 289.82L-13.5199 300.96L-2.37988 312.11H5.19012L-5.9599 300.96L5.19012 289.82H-2.37988Z" fill="#1C3245"/>
<path d="M17.8801 289.82L6.74011 300.96L17.8801 312.11H25.4501L14.3001 300.96L25.4501 289.82H17.8801Z" fill="#1C3245"/>
<path d="M38.1401 289.82L27.0001 300.96L38.1401 312.11H45.7101L34.5601 300.96L45.7101 289.82H38.1401Z" fill="#1C3245"/>
<path d="M-2.37988 312.11L-13.5199 323.25L-2.37988 334.4H5.19012L-5.9599 323.25L5.19012 312.11H-2.37988Z" fill="#1C3245"/>
<path d="M17.8801 312.11L6.74011 323.25L17.8801 334.4H25.4501L14.3001 323.25L25.4501 312.11H17.8801Z" fill="#1C3245"/>
<path d="M38.1401 312.11L27.0001 323.25L38.1401 334.4H45.7101L34.5601 323.25L45.7101 312.11H38.1401Z" fill="#1C3245"/>
<path d="M-2.37988 334.4L-13.5199 345.54L-2.37988 356.69H5.19012L-5.9599 345.54L5.19012 334.4H-2.37988Z" fill="#1C3245"/>
<path d="M17.8801 334.4L6.74011 345.54L17.8801 356.69H25.4501L14.3001 345.54L25.4501 334.4H17.8801Z" fill="#1C3245"/>
<path d="M38.1401 334.4L27.0001 345.54L38.1401 356.69H45.7101L34.5601 345.54L45.7101 334.4H38.1401Z" fill="#1C3245"/>
<path d="M-2.37988 356.69L-13.5199 367.83L-2.37988 378.98H5.19012L-5.9599 367.83L5.19012 356.69H-2.37988Z" fill="#1C3245"/>
<path d="M17.8801 356.69L6.74011 367.83L17.8801 378.98H25.4501L14.3001 367.83L25.4501 356.69H17.8801Z" fill="#1C3245"/>
<path d="M38.1401 356.69L27.0001 367.83L38.1401 378.98H45.7101L34.5601 367.83L45.7101 356.69H38.1401Z" fill="#1C3245"/>
<path d="M-2.37988 378.98L-13.5199 390.13L-2.37988 401.27H5.19012L-5.9599 390.13L5.19012 378.98H-2.37988Z" fill="#1C3245"/>
<path d="M17.8801 378.98L6.74011 390.13L17.8801 401.27H25.4501L14.3001 390.13L25.4501 378.98H17.8801Z" fill="#1C3245"/>
<path d="M38.1401 378.98L27.0001 390.13L38.1401 401.27H45.7101L34.5601 390.13L45.7101 378.98H38.1401Z" fill="#1C3245"/>
<path d="M-2.37988 401.27L-13.5199 412.42L-2.37988 423.56H5.19012L-5.9599 412.42L5.19012 401.27H-2.37988Z" fill="#1C3245"/>
<path d="M17.8801 401.27L6.74011 412.42L17.8801 423.56H25.4501L14.3001 412.42L25.4501 401.27H17.8801Z" fill="#1C3245"/>
<path d="M38.1401 401.27L27.0001 412.42L38.1401 423.56H45.7101L34.5601 412.42L45.7101 401.27H38.1401Z" fill="#1C3245"/>
<path d="M-2.37988 423.56L-13.5199 434.71L-2.37988 445.85H5.19012L-5.9599 434.71L5.19012 423.56H-2.37988Z" fill="#1C3245"/>
<path d="M17.8801 423.56L6.74011 434.71L17.8801 445.85H25.4501L14.3001 434.71L25.4501 423.56H17.8801Z" fill="#1C3245"/>
<path d="M38.1401 423.56L27.0001 434.71L38.1401 445.85H45.7101L34.5601 434.71L45.7101 423.56H38.1401Z" fill="#1C3245"/>
<path d="M-2.37988 445.85L-13.5199 457L-2.37988 468.14H5.19012L-5.9599 457L5.19012 445.85H-2.37988Z" fill="#1C3245"/>
<path d="M17.8801 445.85L6.74011 457L17.8801 468.14H25.4501L14.3001 457L25.4501 445.85H17.8801Z" fill="#1C3245"/>
<path d="M38.1401 445.85L27.0001 457L38.1401 468.14H45.7101L34.5601 457L45.7101 445.85H38.1401Z" fill="#1C3245"/>
<path d="M-2.37988 468.14L-13.5199 479.29L-2.37988 490.43H5.19012L-5.9599 479.29L5.19012 468.14H-2.37988Z" fill="#1C3245"/>
<path d="M17.8801 468.14L6.74011 479.29L17.8801 490.43H25.4501L14.3001 479.29L25.4501 468.14H17.8801Z" fill="#1C3245"/>
<path d="M38.1401 468.14L27.0001 479.29L38.1401 490.43H45.7101L34.5601 479.29L45.7101 468.14H38.1401Z" fill="#1C3245"/>
<path d="M-2.37988 490.43L-13.5199 501.58L-2.37988 512.72H5.19012L-5.9599 501.58L5.19012 490.43H-2.37988Z" fill="#1C3245"/>
<path d="M17.8801 490.43L6.74011 501.58L17.8801 512.72H25.4501L14.3001 501.58L25.4501 490.43H17.8801Z" fill="#1C3245"/>
<path d="M38.1401 490.43L27.0001 501.58L38.1401 512.72H45.7101L34.5601 501.58L45.7101 490.43H38.1401Z" fill="#1C3245"/>
</g>
</g>
</svg>
